<svg width="20" height="20" viewBox="0 0 20 20" fill="none" xmlns="http://www.w3.org/2000/svg">
<path d="M6.5 12C6.36739 12 6.24021 11.9473 6.14645 11.8536C6.05268 11.7598 6 11.6326 6 11.5C6 11.3674 6.05268 11.2402 6.14645 11.1464C6.24021 11.0527 6.36739 11 6.5 11H13.5C13.6326 11 13.7598 11.0527 13.8536 11.1464C13.9473 11.2402 14 11.3674 14 11.5C14 11.6326 13.9473 11.7598 13.8536 11.8536C13.7598 11.9473 13.6326 12 13.5 12H6.5ZM6.5 14.5C6.36739 14.5 6.24021 14.4473 6.14645 14.3536C6.05268 14.2598 6 14.1326 6 14C6 13.8674 6.05268 13.7402 6.14645 13.6464C6.24021 13.5527 6.36739 13.5 6.5 13.5H13.5C13.6326 13.5 13.7598 13.5527 13.8536 13.6464C13.9473 13.7402 14 13.8674 14 14C14 14.1326 13.9473 14.2598 13.8536 14.3536C13.7598 14.4473 13.6326 14.5 13.5 14.5H6.5Z" fill="white"/>
<path fill-rule="evenodd" clip-rule="evenodd" d="M11.185 1H4.5C4.10218 1 3.72064 1.14048 3.43934 1.39052C3.15804 1.64057 3 1.97971 3 2.33333V15.6667C3 16.0203 3.15804 16.3594 3.43934 16.6095C3.72064 16.8595 4.10218 17 4.5 17H15.5C15.8978 17 16.2794 16.8595 16.5607 16.6095C16.842 16.3594 17 16.0203 17 15.6667V6.51289C16.9999 6.17909 16.859 5.85746 16.605 5.61156L12.291 1.432C12.1504 1.29577 11.9795 1.18702 11.7891 1.11265C11.5987 1.03828 11.393 0.99992 11.185 1ZM4 2.33333C4 2.21546 4.05268 2.10241 4.14645 2.01906C4.24021 1.93571 4.36739 1.88889 4.5 1.88889H11.185C11.2544 1.88882 11.323 1.90159 11.3865 1.92638C11.4501 1.95117 11.5071 1.98744 11.554 2.03289L15.868 6.21244C15.9528 6.29437 15.9999 6.40158 16 6.51289V15.6667C16 15.7845 15.9473 15.8976 15.8536 15.9809C15.7598 16.0643 15.6326 16.1111 15.5 16.1111H4.5C4.36739 16.1111 4.24021 16.0643 4.14645 15.9809C4.05268 15.8976 4 15.7845 4 15.6667V2.33333Z" fill="white"/>
<path d="M11.5 2.1001V6.8001H16.2" stroke="white" stroke-linecap="round" stroke-linejoin="round"/>
<path d="M8.13395 6.13301C8.27675 6.13738 8.41898 6.11303 8.55219 6.06141C8.68541 6.00978 8.8069 5.93192 8.90945 5.83246C9.01201 5.73299 9.09355 5.61394 9.14923 5.48237C9.20492 5.3508 9.23361 5.20938 9.23361 5.06651C9.23361 4.92364 9.20492 4.78223 9.14923 4.65066C9.09355 4.51908 9.01201 4.40003 8.90945 4.30057C8.8069 4.2011 8.68541 4.12325 8.55219 4.07162C8.41898 4.01999 8.27675 3.99564 8.13395 4.00001C7.85675 4.0085 7.59374 4.12458 7.40067 4.32367C7.20759 4.52275 7.09961 4.78918 7.09961 5.06651C7.09961 5.34384 7.20759 5.61028 7.40067 5.80936C7.59374 6.00844 7.85675 6.12452 8.13395 6.13301Z" fill="white"/>
<path fill-rule="evenodd" clip-rule="evenodd" d="M10.266 8.44377C10.266 7.30977 9.311 6.48877 8.133 6.48877C6.955 6.48877 6 7.30877 6 8.44377V8.97777C6.00026 9.07201 6.03789 9.16231 6.10462 9.22885C6.17136 9.2954 6.26176 9.33277 6.356 9.33277H9.911C10.0051 9.33251 10.0952 9.29502 10.1617 9.2285C10.2283 9.16198 10.2657 9.07184 10.266 8.97777V8.44377Z" fill="white"/>
</svg>
