<svg width="17" height="16" viewBox="0 0 17 16" fill="none" xmlns="http://www.w3.org/2000/svg">
<path d="M9.50001 4.33355L12.1667 7.00022M2.83334 12.6569V13.6669H3.84268C4.66068 13.6669 5.06934 13.6669 5.43668 13.5149C5.80401 13.3622 6.09334 13.0736 6.67134 12.4949L13.2473 5.91955C13.836 5.33089 14.13 5.03689 14.1627 4.67555C14.168 4.61555 14.168 4.55578 14.1627 4.49622C14.1293 4.13555 13.836 3.84089 13.2473 3.25289C12.6587 2.66422 12.3647 2.37022 12.004 2.33755C11.9441 2.33214 11.8839 2.33214 11.824 2.33755C11.4633 2.37022 11.1693 2.66422 10.5807 3.25289L4.00468 9.82889C3.42668 10.4069 3.13801 10.6956 2.98534 11.0636C2.83334 11.4302 2.83334 11.8396 2.83334 12.6569Z" stroke="#6F6D6D" stroke-width="1.5" stroke-linecap="round" stroke-linejoin="round"/>
</svg>
