<svg width="16" height="18" viewBox="0 0 16 18" fill="none" xmlns="http://www.w3.org/2000/svg">
<path d="M14.2857 1.125H1.71429C1.25963 1.125 0.823594 1.30279 0.502103 1.61926C0.180612 1.93572 0 2.36495 0 2.8125L0 15.1875C0 15.6351 0.180612 16.0643 0.502103 16.3807C0.823594 16.6972 1.25963 16.875 1.71429 16.875H6.61607V11.5204H4.36607V9H6.61607V7.07906C6.61607 4.8941 7.9375 3.68719 9.96143 3.68719C10.9307 3.68719 11.9443 3.85734 11.9443 3.85734V6.00187H10.8275C9.72714 6.00187 9.38393 6.67406 9.38393 7.36348V9H11.8404L11.4475 11.5204H9.38393V16.875H14.2857C14.7404 16.875 15.1764 16.6972 15.4979 16.3807C15.8194 16.0643 16 15.6351 16 15.1875V2.8125C16 2.36495 15.8194 1.93572 15.4979 1.61926C15.1764 1.30279 14.7404 1.125 14.2857 1.125Z" fill="#1877F2"/>
</svg>
