<svg width="25" height="24" viewBox="0 0 25 24" fill="none" xmlns="http://www.w3.org/2000/svg">
<path fill-rule="evenodd" clip-rule="evenodd" d="M12.5847 3.00004H18.4047C19.6759 2.99826 20.9028 3.46735 21.8485 4.31679C22.7942 5.16623 23.3918 6.33584 23.5261 7.59994C23.6603 8.86404 23.3215 10.1331 22.5753 11.1621C21.829 12.1912 20.728 12.9074 19.4847 13.1726C19.2481 13.8249 18.8191 14.3901 18.2545 14.7935C17.6898 15.1968 17.016 15.4193 16.3222 15.4315C15.6284 15.4438 14.9472 15.2452 14.3687 14.8621C13.7901 14.479 13.3414 13.9293 13.0819 13.2858H7.26188C6.66393 13.2851 6.08444 13.4929 5.6231 13.8733C5.16177 14.2537 4.84745 14.783 4.7342 15.3702C4.62095 15.9573 4.71587 16.5656 5.00261 17.0903C5.28936 17.615 5.75001 18.0234 6.30531 18.2452C6.59023 17.6426 7.04463 17.1361 7.61292 16.7877C8.1812 16.4393 8.83872 16.2641 9.50501 16.2836C10.1713 16.303 10.8175 16.5163 11.3644 16.8973C11.9114 17.2782 12.3355 17.8104 12.5847 18.4286H19.8756C19.8154 18.2129 19.7468 17.9996 19.6699 17.7892C19.5923 17.5863 19.5681 17.3669 19.5996 17.152C19.6311 16.937 19.7173 16.7338 19.8499 16.5618C20.0066 16.3598 20.2269 16.2164 20.475 16.1548C20.7232 16.0933 20.9849 16.117 21.2179 16.2223C21.847 16.4966 22.4385 16.992 22.9047 17.556C23.3745 18.1252 23.767 18.8246 23.9505 19.5583C23.9844 19.6945 23.9844 19.837 23.9505 19.9732C23.7546 20.7099 23.3974 21.3938 22.9047 21.9755C22.4385 22.5412 21.847 23.0366 21.2179 23.3109C20.9849 23.4162 20.7232 23.44 20.475 23.3784C20.2269 23.3168 20.0066 23.1735 19.8499 22.9715C19.7173 22.7994 19.6311 22.5962 19.5996 22.3813C19.5681 22.1663 19.5923 21.9469 19.6699 21.744C19.7616 21.5007 19.8395 21.2523 19.903 21H12.583C12.3232 21.643 11.8745 22.1921 11.2961 22.5748C10.7178 22.9575 10.037 23.1558 9.34357 23.1436C8.65017 23.1313 7.97678 22.9091 7.41231 22.5062C6.84784 22.1033 6.41882 21.5387 6.18188 20.8869C4.93864 20.6217 3.83767 19.9055 3.09137 18.8764C2.34508 17.8473 2.00636 16.5783 2.14057 15.3142C2.27478 14.0501 2.8724 12.8805 3.81813 12.0311C4.76386 11.1816 5.99068 10.7125 7.26188 10.7143H13.0819C13.3311 10.0961 13.7552 9.56396 14.3022 9.18298C14.8492 8.80201 15.4953 8.58875 16.1616 8.56928C16.8279 8.54982 17.4854 8.72501 18.0537 9.0734C18.622 9.42179 19.0764 9.92828 19.3613 10.5309C19.9148 10.3076 20.3735 9.89887 20.6588 9.37465C20.9441 8.85042 21.0383 8.24332 20.9253 7.65728C20.8122 7.07125 20.499 6.54273 20.0392 6.16222C19.5794 5.78171 19.0016 5.57288 18.4047 5.57147H12.5847C12.3292 6.2056 11.8898 6.74884 11.3232 7.1314C10.7565 7.51395 10.0884 7.71836 9.40474 7.71836C8.72104 7.71836 8.05296 7.51395 7.48631 7.1314C6.91966 6.74884 6.48032 6.2056 6.22474 5.57147H3.40474C3.06375 5.57147 2.73672 5.43601 2.4956 5.19489C2.25449 4.95378 2.11903 4.62675 2.11903 4.28576C2.11903 3.94476 2.25449 3.61774 2.4956 3.37662C2.73672 3.1355 3.06375 3.00004 3.40474 3.00004H6.22474C6.48032 2.36591 6.91966 1.82268 7.48631 1.44012C8.05296 1.05756 8.72104 0.853149 9.40474 0.853149C10.0884 0.853149 10.7565 1.05756 11.3232 1.44012C11.8898 1.82268 12.3292 2.36591 12.5847 3.00004Z" fill="white"/>
</svg>
