<svg width="21" height="21" viewBox="0 0 21 21" fill="none" xmlns="http://www.w3.org/2000/svg">
<g clip-path="url(#clip0_1256_2266)">
<path d="M10.5 0.5C10.3144 0.5 10.1363 0.57375 10.0051 0.705025C9.8738 0.836301 9.80005 1.01435 9.80005 1.2V17.2C9.80005 17.3857 9.8738 17.5637 10.0051 17.695C10.1363 17.8263 10.3144 17.9 10.5 17.9C10.6857 17.9 10.8637 17.8263 10.995 17.695C11.1263 17.5637 11.2 17.3857 11.2 17.2V9.9H19.8C19.9857 9.9 20.1637 9.82625 20.295 9.69497C20.4263 9.5637 20.5 9.38565 20.5 9.2V1.2C20.5 1.01435 20.4263 0.836301 20.295 0.705025C20.1637 0.57375 19.9857 0.5 19.8 0.5H10.6C10.5831 0.500128 10.5662 0.500795 10.5492 0.502C10.5329 0.500829 10.5165 0.500162 10.5 0.5ZM13.26 1.9H15.22V3.386H17.18V1.9H19.1V3.386H17.18V5.3458H19.1V7.3058H17.18V8.5H15.22V7.306H13.26V8.5H11.3V7.306H13.26V5.3458H11.3V3.3858H13.26V1.9ZM13.26 3.386V5.3458H15.22V3.3858L13.26 3.386ZM15.22 5.3458V7.306L17.18 7.3058V5.3458H15.22Z" fill="#8431BC"/>
<path d="M8.1008 15.8584C5.982 16.158 4.5 16.8744 4.5 17.9286C4.5 19.3486 6.9762 20.5 10.5 20.5C14.0238 20.5 16.5 19.3488 16.5 17.9286C16.5 16.8742 15.018 16.158 12.8994 15.8586L12.6058 16.3584C14.2028 16.5798 15.3 17.0456 15.3 17.5858C15.3 18.3432 13.151 18.9572 10.5 18.9572C7.849 18.9572 5.7 18.3432 5.7 17.5858C5.6998 17.0474 6.79 16.5822 8.3918 16.3598L8.1008 15.8584Z" fill="#8431BC"/>
</g>
<defs>
<clipPath id="clip0_1256_2266">
<rect width="20" height="20" fill="white" transform="translate(0.5 0.5)"/>
</clipPath>
</defs>
</svg>
