<svg width="16" height="16" viewBox="0 0 16 16" fill="none" xmlns="http://www.w3.org/2000/svg">
<path fill-rule="evenodd" clip-rule="evenodd" d="M2.5 2C2.36739 2 2.24021 2.05268 2.14645 2.14645C2.05268 2.24021 2 2.36739 2 2.5V13.5C2 13.6326 2.05268 13.7598 2.14645 13.8536C2.24021 13.9473 2.36739 14 2.5 14H13.5C13.6326 14 13.7598 13.9473 13.8536 13.8536C13.9473 13.7598 14 13.6326 14 13.5V2.5C14 2.36739 13.9473 2.24021 13.8536 2.14645C13.7598 2.05268 13.6326 2 13.5 2H2.5ZM7.354 10.354L11.854 5.854L11.147 5.146L7 9.293L4.854 7.146L4.146 7.854L6.646 10.354C6.69245 10.4006 6.74762 10.4375 6.80837 10.4627C6.86911 10.4879 6.93423 10.5009 7 10.5009C7.06577 10.5009 7.13089 10.4879 7.19163 10.4627C7.25238 10.4375 7.30755 10.4006 7.354 10.354Z" fill="#27C840"/>
</svg>
