<svg width="18" height="20" viewBox="0 0 18 20" fill="none" xmlns="http://www.w3.org/2000/svg">
<path d="M16.5299 6.55398L12.384 2.33064C12.2638 2.2089 12.1014 2.13989 11.9321 2.13989H6.06864C5.89861 2.13989 5.73626 2.2089 5.61673 2.33064L1.47018 6.55398C1.35065 6.67572 1.2829 6.84109 1.2829 7.01426V12.9863C1.2829 13.1588 1.35065 13.3241 1.47018 13.4465L5.61673 17.6692C5.73626 17.791 5.89862 17.86 6.06864 17.86H11.9321C12.1015 17.86 12.2638 17.7909 12.384 17.6692L16.5299 13.4465C16.6494 13.3241 16.7171 13.1588 16.7171 12.9863V7.01426C16.7171 6.84108 16.6494 6.67573 16.5299 6.55398ZM15.4387 12.7168L11.6674 16.558H6.33319L2.56186 12.7168L2.56122 7.28381L6.33255 3.44264L11.6674 3.44199L15.4388 7.28316L15.4387 12.7168ZM10.9847 4.46948L7.01523 4.46882C6.84583 4.46882 6.68349 4.53783 6.56331 4.65957L3.75662 7.51824C3.63709 7.64064 3.56934 7.80601 3.56934 7.97852V12.0215C3.56934 12.1941 3.6371 12.3594 3.75662 12.4818L6.56331 15.3405V15.3398C6.68348 15.4622 6.84585 15.5306 7.01523 15.5306H10.9847C11.1541 15.5306 11.3165 15.4622 11.4366 15.3398L14.2433 12.4812L14.2427 12.4818C14.3629 12.3594 14.43 12.194 14.43 12.0215V7.97852C14.43 7.80599 14.3628 7.64064 14.2427 7.51824L11.4366 4.65957C11.3165 4.53783 11.1541 4.46882 10.9847 4.46882L10.9847 4.46948ZM13.1522 11.752L10.7201 14.2291L7.27999 14.2285L4.84786 11.752V8.24816L7.27999 5.77099H10.7196L13.1518 8.24816L13.1522 11.752ZM9.63914 7.28331V11.0158V11.0152C9.63402 11.3713 9.34958 11.6571 8.99994 11.6571C8.6503 11.6571 8.36585 11.3713 8.36074 11.0152V7.28266V7.28331C8.36586 6.92719 8.6503 6.64138 8.99994 6.64138C9.34958 6.64138 9.63403 6.92718 9.63914 7.28331ZM8.99994 13.368C8.6554 13.3563 8.38247 13.0678 8.38247 12.7169C8.38247 12.366 8.65542 12.0783 8.99994 12.0659C9.34448 12.0783 9.61741 12.366 9.61741 12.7169C9.61741 13.0678 9.34446 13.3563 8.99994 13.368Z" fill="#E57373"/>
</svg>
