<svg width="18" height="18" viewBox="0 0 18 18" fill="none" xmlns="http://www.w3.org/2000/svg">
<path d="M8.75 0.25C11.0698 0.252647 13.2942 1.17513 14.9346 2.81543C16.5749 4.45577 17.4973 6.68021 17.5 9C17.5 10.7306 16.9869 12.4224 16.0254 13.8613C15.0639 15.3002 13.6975 16.4217 12.0986 17.084C10.4998 17.7463 8.7403 17.9197 7.04297 17.582C5.34567 17.2444 3.78619 16.4112 2.5625 15.1875C1.33885 13.9638 0.505579 12.4043 0.167969 10.707C-0.169605 9.00975 0.00377195 7.25016 0.666016 5.65137C1.32828 4.05262 2.44983 2.68603 3.88867 1.72461C5.32757 0.763167 7.01945 0.250022 8.75 0.25ZM8.75 1.5C6.76092 1.50003 4.85376 2.29077 3.44727 3.69727C2.04077 5.10376 1.25003 7.01092 1.25 9C1.25 10.9891 2.04074 12.8972 3.44727 14.3037C4.85373 15.71 6.76109 16.5 8.75 16.5C9.73485 16.5007 10.7105 16.3071 11.6201 15.9297C12.5297 15.5522 13.3557 14.9985 14.0508 14.3008L8.75 9V1.5Z" fill="#8431BC"/>
</svg>
