<svg width="16" height="17" viewBox="0 0 16 17" fill="none" xmlns="http://www.w3.org/2000/svg">
<path d="M14.7231 12.1081L12.6488 2.2456C12.6152 2.08436 12.55 1.93134 12.4571 1.79535C12.3642 1.65936 12.2454 1.54307 12.1074 1.45316C11.9694 1.36325 11.815 1.3015 11.653 1.27146C11.4911 1.24142 11.3248 1.24367 11.1638 1.2781L8.23813 1.90685C7.96915 1.96517 7.72726 2.1114 7.55063 2.32247C7.43733 2.14681 7.2818 2.00237 7.09826 1.90235C6.91472 1.80234 6.70902 1.74995 6.5 1.74997H3.5C3.16848 1.74997 2.85054 1.88167 2.61612 2.11609C2.3817 2.35051 2.25 2.66845 2.25 2.99997V13C2.25 13.3315 2.3817 13.6494 2.61612 13.8839C2.85054 14.1183 3.16848 14.25 3.5 14.25H6.5C6.83152 14.25 7.14946 14.1183 7.38388 13.8839C7.6183 13.6494 7.75 13.3315 7.75 13V5.6406L9.35125 13.2543C9.40961 13.5351 9.56276 13.7873 9.78501 13.9686C10.0073 14.1499 10.2851 14.2492 10.5719 14.25C10.6607 14.2499 10.7494 14.2405 10.8363 14.2218L13.7619 13.5931C14.0855 13.5223 14.3682 13.3266 14.5482 13.0485C14.7282 12.7703 14.7911 12.4324 14.7231 12.1081ZM9.26188 5.5406L11.6994 5.01685L11.8575 5.76685L9.42 6.2906L9.26188 5.5406ZM9.72813 7.75935L12.1656 7.2356L12.7381 9.95935L10.3006 10.4831L9.72813 7.75935ZM11.2319 2.79747L11.39 3.54747L8.9525 4.07122L8.79438 3.32122L11.2319 2.79747ZM3.75 5.49997H6.25V10.5H3.75V5.49997ZM6.25 3.24997V3.99997H3.75V3.24997H6.25ZM3.75 12.75V12H6.25V12.75H3.75ZM10.7681 12.7025L10.61 11.9525L13.0475 11.4287L13.2056 12.1787L10.7681 12.7025Z" fill="#8431BC"/>
</svg>
