<svg width="25" height="25" viewBox="0 0 25 25" fill="none" xmlns="http://www.w3.org/2000/svg">
<path d="M6.37401 17.4954C5.74755 17.5872 4.7163 17.7581 4.03026 16.9798C3.34423 16.2014 2.75097 14.322 2.49022 12.6424C2.10546 10.1668 2.48729 8.08034 3.56444 6.76784C4.19921 5.99489 5.03222 5.54713 5.97362 5.47585C6.77977 5.41383 7.98436 5.72926 9.14745 7.58473C9.87597 8.74733 10.4302 10.2918 10.668 11.8215C10.9551 13.6682 11.2349 15.6389 10.2558 16.3455C9.7036 16.7444 9.30712 16.8826 8.37011 17.1057C7.5996 17.2888 7.00097 17.4031 6.37401 17.4954ZM5.25975 19.0838L10.5766 17.9871C11.0259 17.8943 11.3862 18.1414 11.5532 18.8816C12.1011 21.3113 11.3159 24.2185 8.85692 24.2185C6.52831 24.2185 4.97655 21.5642 4.72313 20.1375C4.60741 19.4905 4.77245 19.1839 5.25975 19.0838ZM16.6304 12.4187C15.6933 12.1965 15.2969 12.0574 14.7446 11.6585C13.7656 10.9519 14.0454 8.98122 14.3325 7.13454C14.5703 5.60475 15.1245 4.05836 15.853 2.89772C17.0151 1.04225 18.2197 0.726822 19.0268 0.788833C19.9673 0.860611 20.8008 1.30739 21.4355 2.08034C22.5137 3.39284 22.8955 5.47926 22.5098 7.95485C22.2485 9.63454 21.6572 11.5076 20.9673 12.2923C20.2773 13.0769 19.2519 12.8997 18.6235 12.8079C17.9951 12.7161 17.4004 12.6013 16.6304 12.4187ZM19.7402 14.3963L14.4233 13.2996C13.9741 13.2068 13.6138 13.4539 13.4468 14.1941C12.8994 16.6238 13.6846 19.531 16.1435 19.531C18.4722 19.531 20.0239 16.8767 20.2773 15.45C20.3926 14.803 20.2275 14.4964 19.7402 14.3963Z" fill="white"/>
</svg>
