<svg width="28" height="29" viewBox="0 0 28 29" fill="none" xmlns="http://www.w3.org/2000/svg">
<path fill-rule="evenodd" clip-rule="evenodd" d="M12.2618 6.59C11.5373 6.786 10.8606 7.09283 10.3893 7.5175C9.10244 8.67833 8.57861 10.251 8.57861 13.086C8.57861 15.1067 7.42828 17.02 6.59994 18.259C6.42028 18.5297 6.36428 18.7875 6.37478 18.9427C6.37944 19.0127 6.39578 19.0453 6.40278 19.057C6.40744 19.0652 6.42144 19.0873 6.47744 19.1177C7.28478 19.5493 8.50278 19.8643 9.91094 20.0638C11.2664 20.2457 12.6325 20.3358 14.0001 20.3333C14.3095 20.3333 14.6063 20.4562 14.8251 20.675C15.0439 20.8938 15.1668 21.1906 15.1668 21.5C15.1668 21.8094 15.0439 22.1062 14.8251 22.325C14.6063 22.5437 14.3095 22.6667 14.0001 22.6667C12.6841 22.6667 11.1021 22.5908 9.58311 22.375C8.08744 22.1615 6.54628 21.7998 5.37728 21.1757C4.51744 20.716 4.10211 19.9157 4.04727 19.1002C3.99361 18.3313 4.25377 17.5718 4.65977 16.964C5.49628 15.711 6.24528 14.3285 6.24528 13.086C6.24528 9.9815 6.81928 7.5945 8.82711 5.785C9.67294 5.022 10.7358 4.58683 11.6493 4.33833C12.4153 4.12591 13.2053 4.01221 14.0001 4C14.3095 4 14.6063 4.12292 14.8251 4.34171C15.0439 4.5605 15.1668 4.85725 15.1668 5.16667C15.1668 5.47609 15.0439 5.77283 14.8251 5.99162C14.6063 6.21042 14.3095 6.33333 14.0001 6.33333C13.6431 6.33333 12.9781 6.394 12.2618 6.59Z" fill="#9B14BC"/>
<path fill-rule="evenodd" clip-rule="evenodd" d="M15.7385 6.59C16.463 6.786 17.1397 7.09283 17.611 7.5175C18.8978 8.67833 19.4217 10.251 19.4217 13.086C19.4217 15.1067 20.572 17.02 21.4003 18.259C21.58 18.5297 21.636 18.7875 21.6255 18.9427C21.6261 18.9825 21.6164 19.0219 21.5975 19.057C21.5928 19.0652 21.5788 19.0873 21.5228 19.1177C20.7155 19.5493 19.4975 19.8643 18.0893 20.0638C16.7339 20.2457 15.3677 20.3358 14.0002 20.3333C13.6907 20.3333 13.394 20.4562 13.1752 20.675C12.9564 20.8938 12.8335 21.1906 12.8335 21.5C12.8335 21.8094 12.9564 22.1062 13.1752 22.325C13.394 22.5437 13.6907 22.6667 14.0002 22.6667C15.3162 22.6667 16.897 22.5908 18.4172 22.375C19.9128 22.1615 21.454 21.7998 22.623 21.1757C23.4828 20.716 23.8982 19.9157 23.953 19.1002C24.0067 18.3313 23.7465 17.5718 23.3405 16.964C22.504 15.711 21.755 14.3285 21.755 13.086C21.755 9.9815 21.181 7.5945 19.1732 5.785C18.3273 5.022 17.2645 4.58683 16.351 4.33833C15.585 4.12591 14.795 4.01221 14.0002 4C13.6907 4 13.394 4.12292 13.1752 4.34171C12.9564 4.5605 12.8335 4.85725 12.8335 5.16667C12.8335 5.47609 12.9564 5.77283 13.1752 5.99162C13.394 6.21042 13.6907 6.33333 14.0002 6.33333C14.3572 6.33333 15.0222 6.394 15.7385 6.59Z" fill="#9B14BC"/>
<path d="M17.0882 4.79325C17.0882 5.60409 15.4596 4.84225 14.1716 4.84225C12.8835 4.84225 11.2549 5.60409 11.2549 4.79209C11.2549 3.98125 12.4215 2.83325 14.1716 2.83325C15.9216 2.83325 17.0882 3.98125 17.0882 4.79325Z" fill="#9B14BC"/>
<path fill-rule="evenodd" clip-rule="evenodd" d="M11.6668 21.5C11.6668 22.1188 11.9127 22.7123 12.3502 23.1499C12.7878 23.5875 13.3813 23.8333 14.0002 23.8333C14.619 23.8333 15.2125 23.5875 15.6501 23.1499C16.0877 22.7123 16.3335 22.1188 16.3335 21.5H18.6668C18.6668 22.7377 18.1752 23.9247 17.3 24.7998C16.4248 25.675 15.2378 26.1667 14.0002 26.1667C12.7625 26.1667 11.5755 25.675 10.7003 24.7998C9.82516 23.9247 9.3335 22.7377 9.3335 21.5H11.6668Z" fill="#9B14BC"/>
</svg>
