<?xml version="1.0" standalone="no"?>
<!DOCTYPE svg PUBLIC "-//W3C//DTD SVG 20010904//EN"
 "http://www.w3.org/TR/2001/REC-SVG-20010904/DTD/svg10.dtd">
<svg version="1.0" xmlns="http://www.w3.org/2000/svg"
 width="853.000000pt" height="1280.000000pt" viewBox="0 0 853.000000 1280.000000"
 preserveAspectRatio="xMidYMid meet">

<g transform="translate(0.000000,1280.000000) scale(0.100000,-0.100000)"
fill="#000000" stroke="none">
<path d="M0 6400 l0 -6400 4265 0 4265 0 0 6400 0 6400 -4265 0 -4265 0 0
-6400z m6385 4180 c314 -80 535 -334 575 -658 25 -201 -27 -379 -168 -568
-123 -165 -218 -366 -238 -504 -13 -87 15 -80 -343 -80 -243 0 -321 3 -329 13
-5 6 -21 59 -36 117 -33 135 -121 313 -216 439 -123 164 -169 283 -177 467
-11 227 56 405 214 567 101 104 215 170 358 207 98 26 258 26 360 0z m-3085
-2225 c14 -19 14 -19 -2 -6 -10 7 -18 18 -18 24 0 6 1 8 3 6 1 -2 9 -13 17
-24z m54 -111 c3 -8 2 -12 -4 -9 -6 3 -10 10 -10 16 0 14 7 11 14 -7z m45
-144 c0 -9 -4 -8 -9 5 -5 11 -9 27 -9 35 0 9 4 8 9 -5 5 -11 9 -27 9 -35z m8
-97 c-2 -16 -4 -5 -4 22 0 28 2 40 4 28 2 -13 2 -35 0 -50z m0 -65 c-3 -7 -5
-2 -5 12 0 14 2 19 5 13 2 -7 2 -19 0 -25z m-15 -50 c-8 -8 -9 -4 -5 13 4 13
8 18 11 10 2 -7 -1 -18 -6 -23z m8 -122 c0 -12 -5 -7 -19 24 -11 24 -11 24 3
6 9 -11 16 -24 16 -30z m3843 -23 c-7 -2 -19 -2 -25 0 -7 3 -2 5 12 5 14 0 19
-2 13 -5z m-3799 -59 c3 -8 2 -12 -4 -9 -6 3 -10 10 -10 16 0 14 7 11 14 -7z
m56 -95 c15 -28 5 -23 -15 7 -9 15 -12 23 -6 20 6 -4 16 -16 21 -27z m50 -94
c0 -8 -3 -16 -7 -18 -5 -3 -8 5 -8 18 0 13 3 21 8 18 4 -2 7 -10 7 -18z m-113
-177 c-2 -13 -4 -3 -4 22 0 25 2 35 4 23 2 -13 2 -33 0 -45z m-10 -90 c-3 -7
-5 -2 -5 12 0 14 2 19 5 13 2 -7 2 -19 0 -25z m-20 -160 c-3 -7 -5 -2 -5 12 0
14 2 19 5 13 2 -7 2 -19 0 -25z m-12 -83 c-4 -25 -9 -44 -12 -41 -2 2 -1 25 2
51 4 25 9 44 12 41 2 -2 1 -25 -2 -51z m-18 -77 c-3 -8 -6 -5 -6 6 -1 11 2 17
5 13 3 -3 4 -12 1 -19z m-10 -50 c-3 -8 -6 -5 -6 6 -1 11 2 17 5 13 3 -3 4
-12 1 -19z m-16 -36 c-5 -10 -18 -25 -27 -33 -11 -9 -9 -2 6 19 26 35 36 42
21 14z m-449 -119 c-3 -16 -7 -22 -10 -15 -4 13 4 42 11 42 2 0 2 -12 -1 -27z
m1501 -64 c136 -28 287 -79 400 -135 104 -52 142 -77 210 -143 46 -45 48 -45
80 -32 82 35 205 71 294 87 166 31 591 24 715 -12 12 -4 16 -14 15 -34 -1 -15
-6 -26 -11 -23 -4 3 -5 -5 -1 -18 4 -16 3 -20 -3 -11 -6 10 -42 -48 -122 -200
-62 -117 -168 -316 -235 -443 -67 -126 -142 -268 -167 -315 -25 -47 -78 -148
-118 -225 -40 -77 -74 -142 -76 -144 -2 -2 -61 13 -131 33 -192 54 -304 70
-483 70 -161 0 -232 -10 -337 -47 l-62 -22 -38 45 c-97 113 -180 174 -307 226
-47 19 -83 41 -87 51 -4 10 -21 63 -39 118 -49 151 -112 264 -203 363 -47 50
-50 36 52 211 37 64 128 222 201 351 73 129 142 246 154 259 20 22 25 23 109
17 48 -3 133 -15 190 -27z m1767 -364 l35 -40 -33 30 c-19 17 -38 39 -44 50
-6 11 -7 16 -2 10 5 -5 25 -28 44 -50z"/>
</g>
</svg>
