<?xml version="1.0" standalone="no"?>
<!DOCTYPE svg PUBLIC "-//W3C//DTD SVG 20010904//EN"
 "http://www.w3.org/TR/2001/REC-SVG-20010904/DTD/svg10.dtd">
<svg version="1.0" xmlns="http://www.w3.org/2000/svg"
 width="853.000000pt" height="1280.000000pt" viewBox="0 0 853.000000 1280.000000"
 preserveAspectRatio="xMidYMid meet">

<g transform="translate(0.000000,1280.000000) scale(0.100000,-0.100000)"
fill="#000000" stroke="none">
<path d="M0 6400 l0 -6400 4265 0 4265 0 0 6400 0 6400 -4265 0 -4265 0 0
-6400z m4419 -3387 c86 -53 233 -144 326 -201 375 -231 471 -294 468 -307 -2
-6 -107 -11 -282 -13 l-279 -2 29 -113 c32 -121 35 -167 5 -67 -13 42 -21 58
-27 48 -5 -7 -9 -20 -9 -28 0 -13 1 -13 10 0 5 8 10 12 10 8 0 -3 3 -15 6 -25
5 -15 4 -15 -5 -3 -9 13 -11 13 -11 0 0 -10 -3 -11 -8 -4 -9 15 -177 31 -168
16 3 -5 -14 -16 -39 -23 -36 -11 -45 -18 -45 -35 0 -19 -7 -23 -43 -25 -40 -4
-43 -2 -39 19 4 21 2 22 -77 22 -47 0 -81 4 -81 10 0 6 -4 10 -10 10 -5 0 -10
-7 -10 -15 0 -18 -21 -20 -38 -3 -7 7 -32 12 -57 13 -36 0 -45 -3 -45 -17 0
-22 -18 -24 -26 -3 -4 8 -18 15 -33 15 -22 1 -24 2 -8 11 28 16 22 42 -9 38
-4 0 -11 5 -15 13 -6 9 -9 6 -9 -11 0 -16 -4 -21 -15 -17 -8 3 -15 1 -15 -4 0
-6 -7 -10 -15 -10 -9 0 -15 -10 -16 -22 0 -13 -3 -18 -5 -11 -3 7 6 55 20 108
14 53 26 99 26 101 0 2 -130 4 -289 4 -160 0 -292 4 -295 9 -3 5 2 15 12 22
15 13 16 12 3 -3 -13 -17 1 -18 270 -16 177 1 252 4 199 8 -47 3 -76 7 -65 9
19 2 19 3 -3 13 -18 9 -25 8 -36 -8 -12 -16 -16 -16 -31 -4 -16 13 -16 15 2
21 13 5 7 8 -19 8 -44 1 -70 10 -62 22 7 12 -33 11 -57 -2 -15 -7 -28 -6 -51
5 -38 19 -41 20 -32 4 4 -7 4 -10 -1 -6 -4 4 -27 -4 -51 -18 -61 -36 -55 -24
9 16 28 18 105 68 169 109 65 42 177 114 250 160 198 126 255 163 343 219 44
29 89 52 99 52 10 0 89 -44 175 -97z m-525 -718 c-4 -8 -10 -12 -15 -9 -11 6
-2 24 11 24 5 0 7 -7 4 -15z m-79 -110 c-10 -36 -20 -63 -22 -61 -2 2 4 33 13
70 10 36 20 63 22 61 3 -2 -4 -34 -13 -70z m382 49 c-3 -3 -12 -4 -19 -1 -8 3
-5 6 6 6 11 1 17 -2 13 -5z m43 -4 c0 -5 -2 -10 -4 -10 -3 0 -8 5 -11 10 -3 6
-1 10 4 10 6 0 11 -4 11 -10z m499 -90 c0 -9 -4 -8 -9 5 -5 11 -9 27 -9 35 0
9 4 8 9 -5 5 -11 9 -27 9 -35z m8 -42 c-3 -8 -6 -5 -6 6 -1 11 2 17 5 13 3 -3
4 -12 1 -19z"/>
<path d="M3595 2670 c-3 -5 -12 -7 -19 -4 -8 3 -17 0 -22 -7 -4 -8 -3 -10 5
-5 6 4 20 2 29 -5 9 -7 14 -9 10 -5 -4 5 -3 15 3 23 6 7 9 13 6 13 -3 0 -8 -4
-12 -10z"/>
<path d="M3494 2629 c-9 -10 -26 -21 -37 -25 -19 -6 -19 -7 -2 -16 13 -8 20
-7 27 6 5 9 14 16 21 16 7 0 6 -4 -3 -10 -8 -5 -10 -10 -4 -10 9 0 54 36 54
44 0 2 -9 6 -19 9 -12 3 -27 -3 -37 -14z"/>
<path d="M4973 2633 c-3 -10 -8 -22 -11 -27 -3 -5 0 -6 6 -2 7 4 12 14 12 23
0 13 3 13 15 3 9 -7 17 -11 20 -9 2 3 -5 10 -16 17 -16 11 -20 10 -26 -5z"/>
<path d="M5036 2598 c5 -8 1 -9 -12 -5 -18 7 -18 6 -2 -6 10 -8 14 -17 10 -21
-4 -4 6 -2 21 5 27 12 27 14 11 26 -22 16 -38 17 -28 1z"/>
<path d="M4980 2580 c20 -13 33 -13 25 0 -3 6 -14 10 -23 10 -15 0 -15 -2 -2
-10z"/>
<path d="M5074 2561 c3 -5 22 -11 42 -13 32 -4 34 -3 18 9 -20 15 -68 18 -60
4z"/>
<path d="M4903 2534 c7 -8 108 -7 115 1 3 3 -23 5 -58 5 -35 0 -60 -3 -57 -6z"/>
<path d="M5038 2529 c-3 -8 -53 -13 -158 -16 -85 -3 -157 -7 -159 -9 -2 -2
108 -4 244 -4 233 0 248 1 233 17 -21 21 -154 31 -160 12z m70 -6 c-10 -2 -28
-2 -40 0 -13 2 -5 4 17 4 22 1 32 -1 23 -4z"/>
<path d="M3886 2415 c-9 -26 -7 -32 5 -12 6 10 9 21 6 23 -2 3 -7 -2 -11 -11z"/>
</g>
</svg>
