<?xml version="1.0" standalone="no"?>
<!DOCTYPE svg PUBLIC "-//W3C//DTD SVG 20010904//EN"
 "http://www.w3.org/TR/2001/REC-SVG-20010904/DTD/svg10.dtd">
<svg version="1.0" xmlns="http://www.w3.org/2000/svg"
 width="853.000000pt" height="1280.000000pt" viewBox="0 0 853.000000 1280.000000"
 preserveAspectRatio="xMidYMid meet">

<g transform="translate(0.000000,1280.000000) scale(0.100000,-0.100000)"
fill="#000000" stroke="none">
<path d="M0 6400 l0 -6400 4265 0 4265 0 0 6400 0 6400 -4265 0 -4265 0 0
-6400z m6221 4450 c135 -15 267 -61 373 -129 58 -36 116 -87 116 -102 0 -6
-12 3 -26 20 -14 17 -30 31 -36 31 -7 0 -6 -5 1 -14 9 -11 9 -16 0 -22 -7 -4
-9 -3 -5 4 3 6 2 13 -4 17 -6 4 -8 10 -5 15 6 9 -25 23 -33 15 -3 -3 0 -5 6
-5 14 0 12 -22 -3 -32 -5 -4 -17 -5 -25 -3 -20 6 -27 -55 -8 -66 9 -6 9 -13 1
-31 -9 -18 -12 -19 -12 -5 -1 9 -8 17 -16 17 -11 0 -15 -11 -15 -40 0 -29 4
-40 15 -40 8 0 15 -7 15 -15 0 -8 -3 -14 -7 -13 -16 4 -73 -14 -73 -23 0 -5 5
-9 12 -9 6 0 9 -3 5 -6 -16 -16 26 -34 81 -34 52 0 60 -3 72 -25 9 -17 17 -22
24 -15 17 17 29 11 23 -12 -10 -37 4 -110 20 -104 7 3 24 0 38 -6 20 -9 24
-17 23 -59 0 -26 3 -53 7 -60 4 -6 1 -15 -6 -20 -11 -7 -10 -9 4 -9 9 0 17 5
17 10 0 6 5 10 10 10 6 0 10 -20 10 -45 0 -39 3 -45 21 -45 18 0 17 -3 -10
-26 -17 -14 -31 -29 -31 -34 0 -12 53 1 73 18 9 8 17 10 17 5 0 -15 -45 -43
-68 -43 -12 0 -22 -9 -25 -22 -2 -13 -8 -31 -12 -40 -6 -15 -2 -18 19 -18 28
0 35 -14 11 -24 -8 -3 -15 -1 -15 4 0 6 -9 10 -20 10 -14 0 -20 -6 -18 -16 2
-12 -9 -20 -36 -28 -48 -14 -66 -38 -48 -66 15 -24 16 -40 2 -40 -5 0 -10 7
-10 16 0 27 -20 4 -21 -24 0 -24 -1 -25 -9 -7 -6 16 -9 10 -12 -25 -3 -25 -5
3 -4 63 1 88 -2 106 -13 102 -11 -4 -11 -2 -2 9 8 9 11 56 8 147 l-3 134 -2
-137 c-2 -107 -5 -138 -15 -138 -8 0 -14 -7 -14 -15 0 -8 6 -15 14 -15 10 0
13 -26 13 -115 0 -123 -11 -164 -49 -185 -13 -6 -170 -10 -436 -10 l-417 0
-29 29 c-29 29 -29 30 -29 155 0 94 3 126 13 126 6 1 1 7 -13 15 -15 9 -19 14
-10 15 13 0 15 21 12 138 -4 186 -4 185 144 192 87 4 109 8 110 20 0 9 -1 10
-3 3 -3 -9 -32 -13 -98 -13 -52 0 -105 -4 -119 -10 -18 -6 -26 -6 -26 1 0 6
-4 8 -9 5 -5 -3 -11 7 -13 24 -2 16 -1 27 3 24 4 -2 10 0 14 5 3 5 -3 14 -12
20 -16 9 -14 10 10 11 15 0 27 5 27 10 0 6 -7 10 -15 10 -8 0 -15 7 -15 15 0
8 7 15 15 15 8 0 15 5 15 10 0 6 15 11 33 11 23 1 26 3 10 6 -27 5 -29 16 -8
33 8 7 13 15 10 19 -2 4 5 14 16 21 10 8 19 25 19 38 0 12 7 25 15 28 8 4 15
10 15 15 0 5 -7 9 -15 9 -17 0 -17 -1 -19 57 -2 49 -10 61 -31 43 -13 -11 -15
-8 -15 20 0 27 2 31 15 20 8 -6 19 -9 25 -5 5 3 10 -2 11 -12 0 -16 1 -16 9 2
14 33 12 35 -35 35 -28 0 -45 -5 -45 -12 0 -6 -3 -8 -7 -5 -3 4 1 15 10 25 10
10 14 22 11 25 -4 4 1 9 10 13 14 6 24 44 10 44 -8 0 -30 -24 -32 -35 -1 -5
-8 -10 -14 -10 -7 -1 -12 -7 -10 -13 2 -10 -3 -10 -16 -3 -17 9 -50 -4 -72
-28 -3 -3 -14 -12 -25 -20 -11 -7 0 6 25 28 49 46 88 72 75 51 -5 -8 -3 -11 6
-8 8 3 14 11 14 19 0 18 108 71 209 104 66 22 147 36 236 44 8 0 54 -4 101 -9z
m445 -235 c-8 -8 -18 -15 -22 -15 -3 0 -1 7 6 15 7 8 17 15 22 15 5 0 3 -7 -6
-15z m174 -129 c0 -5 -2 -7 -4 -5 -1 2 -29 36 -60 74 l-57 70 60 -65 c34 -35
61 -69 61 -74z m-243 92 c-3 -7 -5 -2 -5 12 0 14 2 19 5 13 2 -7 2 -19 0 -25z
m-1061 10 c4 -7 3 -10 -1 -5 -5 4 -20 -3 -34 -15 l-26 -23 24 28 c28 31 28 31
37 15z m1194 -9 c0 -6 -4 -7 -10 -4 -5 3 -10 11 -10 16 0 6 5 7 10 4 6 -3 10
-11 10 -16z m-130 -90 c0 -5 -7 -9 -15 -9 -15 0 -20 12 -9 23 8 8 24 -1 24
-14z m290 -80 c15 -28 5 -23 -15 7 -9 15 -12 23 -6 20 6 -4 16 -16 21 -27z
m-316 6 c17 -13 18 -15 3 -15 -9 0 -17 4 -17 9 0 5 -8 12 -17 14 -13 3 -14 5
-3 6 8 0 24 -6 34 -14z m375 -135 c0 -8 -8 5 -19 29 -11 24 -20 46 -20 50 1
12 39 -64 39 -79z m-213 -10 c8 0 14 -6 14 -14 0 -9 -9 -14 -20 -13 -15 1 -20
8 -19 27 0 14 3 19 6 13 2 -7 11 -13 19 -13z m248 -115 c4 -28 3 -33 -2 -15
-16 46 -23 86 -13 70 5 -8 12 -33 15 -55z m-1359 6 c-3 -5 4 -12 15 -16 22 -7
26 -20 10 -30 -5 -3 -11 -23 -11 -43 -1 -29 -3 -32 -7 -12 l-5 25 -8 -25 -7
-25 -1 28 c-1 15 4 27 11 27 6 0 3 10 -8 21 -19 21 -19 22 4 15 14 -5 22 -3
22 4 0 6 -4 9 -9 6 -5 -3 -14 0 -20 8 -9 11 -9 15 1 19 19 8 20 8 13 -2z m-25
-61 c0 -5 -2 -10 -4 -10 -3 0 -8 5 -11 10 -3 6 -1 10 4 10 6 0 11 -4 11 -10z
m1397 -37 c-3 -10 -5 -2 -5 17 0 19 2 27 5 18 2 -10 2 -26 0 -35z m-1397 -8
c0 -8 -4 -15 -10 -15 -5 0 -10 7 -10 15 0 8 5 15 10 15 6 0 10 -7 10 -15z m31
-44 c7 11 9 9 9 -8 0 -16 -4 -21 -15 -17 -8 4 -14 16 -14 28 1 19 2 19 6 2 4
-15 7 -16 14 -5z m-27 -56 c-9 -23 -23 1 -16 27 4 17 6 18 13 5 5 -8 6 -23 3
-32z m35 -57 c-1 -40 -4 -62 -6 -48 -3 14 -10 29 -17 33 -8 6 -8 10 2 14 6 2
12 20 12 39 0 19 2 34 5 34 3 0 4 -33 4 -72z m1211 2 c0 -5 -7 -10 -15 -10 -8
0 -15 5 -15 10 0 6 7 10 15 10 8 0 15 -4 15 -10z m146 -70 c-7 -58 -25 -125
-32 -118 -2 2 3 31 11 63 8 33 14 72 15 88 0 15 3 27 6 27 4 0 4 -27 0 -60z
m-149 14 c-8 -8 -47 10 -47 22 0 12 5 11 25 -2 14 -9 24 -18 22 -20z m-150
-96 c-3 -8 -6 -5 -6 6 -1 11 2 17 5 13 3 -3 4 -12 1 -19z m244 -115 c-12 -20
-14 -14 -5 12 4 9 9 14 11 11 3 -2 0 -13 -6 -23z m-20 -46 c-10 -9 -11 -8 -5
6 3 10 9 15 12 12 3 -3 0 -11 -7 -18z m-31 -65 c0 -5 -7 -17 -15 -28 -14 -18
-14 -17 -4 9 12 27 19 34 19 19z m-548 -1554 c288 -300 458 -482 458 -490 0
-5 -99 -8 -220 -8 l-220 0 -1 -332 c-1 -452 -13 -747 -34 -823 -25 -88 -77
-189 -144 -278 -73 -99 -341 -378 -354 -370 -6 3 -7 1 -3 -6 4 -6 -7 -29 -26
-53 -18 -23 -43 -71 -56 -107 -21 -61 -22 -63 -16 -21 3 25 18 67 32 95 19 38
21 46 7 35 -9 -8 -21 -23 -26 -35 -9 -20 -9 -20 -8 0 2 39 -2 51 -11 29 -7
-17 -14 -19 -46 -15 -35 4 -37 5 -14 12 21 6 22 7 4 8 -11 1 -29 -6 -40 -14
-25 -19 -38 -19 -30 0 3 10 -3 17 -19 21 -16 4 -25 13 -25 26 0 16 -3 18 -13
9 -8 -6 -17 -8 -20 -4 -4 3 -7 -1 -7 -10 0 -27 -16 -20 -30 13 -14 33 -27 39
-32 14 -3 -13 -6 -13 -23 4 -18 17 -22 17 -42 4 -22 -14 -23 -13 -23 13 0 21
-3 25 -13 17 -9 -8 -19 -4 -36 14 -19 19 -26 22 -32 12 -6 -9 -9 -7 -9 8 0 24
-41 50 -65 40 -9 -3 -22 0 -29 6 -11 11 -11 15 2 24 8 6 12 16 8 22 -11 18
-68 7 -111 -20 -22 -14 -42 -23 -45 -20 -3 2 0 7 6 9 7 2 45 29 85 60 437 333
558 532 648 1068 19 109 71 502 71 533 0 9 -52 12 -225 12 -124 0 -225 4 -225
8 0 5 20 26 44 48 24 21 140 131 257 244 328 315 430 410 439 410 4 0 100 -96
212 -212z m-3142 -207 c0 -45 -6 -37 -13 18 -4 29 -2 40 4 30 5 -7 9 -29 9
-48z m7 -98 c-3 -10 -5 -2 -5 17 0 19 2 27 5 18 2 -10 2 -26 0 -35z m-7 -113
l-7 -85 -1 72 c-2 58 5 114 12 101 1 -2 -1 -41 -4 -88z m-13 -142 c-3 -7 -5
-2 -5 12 0 14 2 19 5 13 2 -7 2 -19 0 -25z m-10 -70 c-3 -7 -5 -2 -5 12 0 14
2 19 5 13 2 -7 2 -19 0 -25z m-20 -130 c-3 -8 -6 -5 -6 6 -1 11 2 17 5 13 3
-3 4 -12 1 -19z m1853 -1442 c0 -2 -8 -10 -17 -17 -16 -13 -17 -12 -4 4 13 16
21 21 21 13z m450 -136 c0 -5 -4 -10 -10 -10 -5 0 -10 5 -10 10 0 6 5 10 10
10 6 0 10 -4 10 -10z"/>
<path d="M6469 10762 c12 -8 11 -11 -3 -15 -15 -4 -15 -5 1 -3 19 1 21 19 1
24 -10 3 -10 1 1 -6z"/>
<path d="M5800 10750 c-9 -6 -10 -10 -3 -10 6 0 15 5 18 10 8 12 4 12 -15 0z"/>
<path d="M5737 10739 c7 -7 15 -10 18 -7 3 3 -2 9 -12 12 -14 6 -15 5 -6 -5z"/>
<path d="M6532 10727 c11 -9 13 -18 7 -29 -6 -11 -4 -20 6 -28 13 -10 15 -9
16 11 1 13 1 27 0 31 0 4 6 5 15 1 11 -4 12 -8 4 -13 -8 -5 -8 -10 -2 -14 5
-3 12 1 16 9 3 10 -5 20 -24 30 -36 19 -62 20 -38 2z"/>
<path d="M6500 10690 c0 -5 5 -10 10 -10 6 0 10 5 10 10 0 6 -4 10 -10 10 -5
0 -10 -4 -10 -10z"/>
<path d="M6570 10666 c0 -2 7 -7 16 -10 8 -3 12 -2 9 4 -6 10 -25 14 -25 6z"/>
<path d="M5770 10563 c-13 -15 -12 -16 4 -10 10 4 22 7 27 7 6 0 7 5 4 10 -9
14 -18 12 -35 -7z"/>
<path d="M6455 10390 c3 -5 10 -10 16 -10 5 0 9 5 9 10 0 6 -7 10 -16 10 -8 0
-12 -4 -9 -10z"/>
<path d="M6063 10313 c43 -2 110 -2 150 0 40 1 5 3 -78 3 -82 0 -115 -2 -72
-3z"/>
<path d="M6300 10314 c0 -1 14 -16 30 -32 17 -17 30 -27 30 -23 0 4 -9 16 -20
26 -11 10 -18 21 -15 25 2 4 -2 7 -10 7 -8 0 -15 -1 -15 -3z"/>
<path d="M6631 10304 c0 -11 3 -14 6 -6 3 7 2 16 -1 19 -3 4 -6 -2 -5 -13z"/>
<path d="M5955 10300 c-3 -6 1 -7 9 -4 18 7 21 14 7 14 -6 0 -13 -4 -16 -10z"/>
<path d="M6259 10218 c4 -28 6 -29 9 -9 2 13 0 27 -5 32 -6 6 -7 -3 -4 -23z"/>
<path d="M6002 10200 c0 -14 2 -19 5 -12 2 6 2 18 0 25 -3 6 -5 1 -5 -13z"/>
<path d="M6361 10184 c0 -11 3 -14 6 -6 3 7 2 16 -1 19 -3 4 -6 -2 -5 -13z"/>
<path d="M6073 10153 c31 -2 83 -2 115 0 31 2 5 3 -58 3 -63 0 -89 -1 -57 -3z"/>
<path d="M6476 10151 c82 -5 94 -9 112 -31 l21 -25 -3 28 c-3 28 -16 51 -16
28 0 -8 -5 -9 -19 -1 -11 5 -57 9 -103 8 l-83 -2 91 -5z"/>
<path d="M6125 9891 c22 -4 47 -10 55 -15 8 -4 6 0 -4 8 -11 9 -36 15 -55 15
l-36 -2 40 -6z"/>
<path d="M6548 9813 c7 -3 16 -2 19 1 4 3 -2 6 -13 5 -11 0 -14 -3 -6 -6z"/>
<path d="M5698 9793 c12 -2 32 -2 45 0 12 2 2 4 -23 4 -25 0 -35 -2 -22 -4z"/>
<path d="M6052 9744 c10 -10 20 -16 22 -13 3 3 -5 11 -17 18 -21 13 -21 12 -5
-5z"/>
<path d="M5145 5855 c-16 -8 -23 -14 -14 -15 8 0 24 7 35 15 23 18 18 18 -21
0z"/>
<path d="M5490 5669 c0 -5 5 -7 10 -4 6 3 10 8 10 11 0 2 -4 4 -10 4 -5 0 -10
-5 -10 -11z"/>
<path d="M5690 5616 c0 -9 5 -16 10 -16 6 0 10 4 10 9 0 6 -4 13 -10 16 -5 3
-10 -1 -10 -9z"/>
</g>
</svg>
