<svg width="24" height="24" viewBox="0 0 24 24" fill="none" xmlns="http://www.w3.org/2000/svg">
<rect width="24" height="24" rx="8" fill="white"/>
<path d="M7.73328 12.5335H7.19995V11.4668H7.73328C7.87473 11.4668 8.01039 11.523 8.11041 11.623C8.21043 11.723 8.26662 11.8587 8.26662 12.0001C8.26662 12.1416 8.21043 12.2772 8.11041 12.3773C8.01039 12.4773 7.87473 12.5335 7.73328 12.5335ZM11.4666 14.6668V11.4668H11.9999C12.1414 11.4668 12.2771 11.523 12.3771 11.623C12.4771 11.723 12.5333 11.8587 12.5333 12.0001V14.1335C12.5333 14.2749 12.4771 14.4106 12.3771 14.5106C12.2771 14.6106 12.1414 14.6668 11.9999 14.6668H11.4666Z" fill="#FF0000"/>
<path fill-rule="evenodd" clip-rule="evenodd" d="M5.06665 5.6C5.06665 5.17565 5.23522 4.76869 5.53528 4.46863C5.83534 4.16857 6.2423 4 6.66665 4H15.4208L18.9333 7.51253V18.4C18.9333 18.8243 18.7647 19.2313 18.4647 19.5314C18.1646 19.8314 17.7577 20 17.3333 20H6.66665C6.2423 20 5.83534 19.8314 5.53528 19.5314C5.23522 19.2313 5.06665 18.8243 5.06665 18.4V5.6ZM7.73332 10.4H6.13332V15.7333H7.19998V13.6H7.73332C8.15766 13.6 8.56463 13.4314 8.86469 13.1314C9.16475 12.8313 9.33332 12.4243 9.33332 12C9.33332 11.5757 9.16475 11.1687 8.86469 10.8686C8.56463 10.5686 8.15766 10.4 7.73332 10.4ZM12 10.4H10.4V15.7333H12C12.4243 15.7333 12.8313 15.5648 13.1314 15.2647C13.4314 14.9646 13.6 14.5577 13.6 14.1333V12C13.6 11.5757 13.4314 11.1687 13.1314 10.8686C12.8313 10.5686 12.4243 10.4 12 10.4ZM14.6667 15.7333V10.4H17.8667V11.4667H15.7333V12.5333H16.8V13.6H15.7333V15.7333H14.6667Z" fill="#FF0000"/>
</svg>
