<svg width="20" height="20" viewBox="0 0 20 20" fill="none" xmlns="http://www.w3.org/2000/svg">
<path fill-rule="evenodd" clip-rule="evenodd" d="M10 0.625C5.74294 0.625 2.29169 4.07625 2.29169 8.33333C2.29169 10.7854 3.43752 12.9704 5.22002 14.3812C5.29752 14.6575 5.37294 14.9117 5.43919 15.1263C5.63502 15.7654 6.17877 16.255 6.87752 16.3279C7.48294 16.3908 8.48377 16.4583 10 16.4583C11.5163 16.4583 12.5171 16.3908 13.1225 16.3279C13.8213 16.255 14.3646 15.7654 14.5609 15.1263C14.6271 14.9117 14.7025 14.6575 14.78 14.3812C16.5625 12.97 17.7084 10.7854 17.7084 8.33333C17.7084 4.07625 14.2571 0.625 10 0.625ZM10 4.375C10.9393 4.375 11.8402 4.74814 12.5044 5.41233C13.1685 6.07652 13.5417 6.97736 13.5417 7.91667C13.5417 8.08243 13.6075 8.2414 13.7247 8.35861C13.842 8.47582 14.0009 8.54167 14.1667 8.54167C14.3324 8.54167 14.4914 8.47582 14.6086 8.35861C14.7258 8.2414 14.7917 8.08243 14.7917 7.91667C14.7917 5.27042 12.6463 3.125 10 3.125C9.83426 3.125 9.67529 3.19085 9.55808 3.30806C9.44087 3.42527 9.37502 3.58424 9.37502 3.75C9.37502 3.91576 9.44087 4.07473 9.55808 4.19194C9.67529 4.30915 9.83426 4.375 10 4.375ZM6.76919 17.3638C6.65738 17.3517 6.54636 17.3332 6.43669 17.3083C6.45919 17.4342 6.48099 17.5522 6.5021 17.6625C6.64585 18.4304 7.21294 19.1146 8.07419 19.245C8.5421 19.3158 9.17919 19.375 10 19.375C10.7804 19.375 11.4259 19.3212 11.9217 19.2563C12.9117 19.1262 13.5584 18.3083 13.6563 17.4062L13.6696 17.2812C13.5285 17.3201 13.3821 17.3476 13.2304 17.3638C12.5838 17.4312 11.5467 17.5 10 17.5C8.45335 17.5 7.41585 17.4312 6.76919 17.3638Z" fill="#FFCC00"/>
</svg>
