<svg width="25" height="25" viewBox="0 0 25 25" fill="none" xmlns="http://www.w3.org/2000/svg">
<path d="M16.7814 20.8377L15.904 22.709L20.6392 24.9998L21.5165 23.1285L16.7814 20.8377Z" fill="white"/>
<path d="M23.9329 7.93619C23.7308 8.01961 23.5593 8.1649 23.4422 8.35187C23.3251 8.53885 23.2683 8.75822 23.2796 8.97952C23.2796 8.98235 23.2797 8.98518 23.2799 8.988L23.3536 12.0533C23.4997 12.0886 23.6418 12.1395 23.7774 12.2051C23.8155 12.2235 23.8497 12.2494 23.8779 12.2812C23.9062 12.313 23.928 12.3502 23.9421 12.3906C23.9562 12.431 23.9623 12.4738 23.9601 12.5166C23.9579 12.5594 23.9474 12.6013 23.9293 12.64L22.2001 16.3281C22.182 16.3667 22.1566 16.4014 22.1252 16.4301C22.0939 16.4588 22.0573 16.4809 22.0176 16.4952C21.9779 16.5095 21.9357 16.5158 21.8936 16.5135C21.8515 16.5113 21.8103 16.5007 21.7722 16.4823C21.7341 16.4639 21.7 16.438 21.6718 16.4062C21.6435 16.3744 21.6218 16.3372 21.6077 16.2969C21.5936 16.2565 21.5874 16.2137 21.5896 16.1709C21.5918 16.1282 21.6022 16.0862 21.6204 16.0476L23.1966 12.6858C22.864 12.6077 22.5151 12.6471 22.2075 12.7976C21.9 12.9481 21.6522 13.2007 21.505 13.5136L20.4531 15.7571C20.2432 16.2034 19.9371 16.596 19.5577 16.9059L19.3391 17.084C18.8156 17.5083 18.414 18.0678 18.1765 18.7039C17.9391 19.3401 17.8744 20.0294 17.9893 20.6996L21.1515 22.2295L21.1194 21.7907C21.0827 21.3038 21.2338 20.8215 21.5407 20.4456L24.2859 17.0708C24.7559 16.4003 25.0057 15.5963 24.9999 14.7733L23.9329 7.93619Z" fill="white"/>
<path d="M8.21846 20.8379L3.48326 23.1286L4.36058 25L9.09578 22.7093L8.21846 20.8379Z" fill="white"/>
<path d="M3.88067 21.7907L3.84856 22.2295L7.01082 20.6996C7.12571 20.0294 7.06101 19.3401 6.82352 18.7039C6.58603 18.0678 6.18448 17.5083 5.66095 17.084L5.44229 16.9059C5.06284 16.596 4.75683 16.2034 4.54691 15.7571L3.49489 13.5135C3.34767 13.2006 3.09985 12.9481 2.79233 12.7976C2.4848 12.647 2.13595 12.6075 1.80334 12.6855L3.37952 16.0474C3.41613 16.1255 3.42071 16.2152 3.39224 16.2967C3.36377 16.3782 3.30458 16.4449 3.2277 16.4821C3.15082 16.5193 3.06254 16.524 2.98229 16.4951C2.90203 16.4661 2.83637 16.406 2.79975 16.3279L1.07063 12.6398C1.05248 12.6011 1.042 12.5592 1.03981 12.5164C1.03761 12.4736 1.04374 12.4308 1.05784 12.3904C1.07193 12.35 1.09373 12.3129 1.12197 12.281C1.15022 12.2492 1.18436 12.2234 1.22245 12.2049C1.3581 12.1394 1.50018 12.0885 1.64633 12.0531L1.72002 8.98827C1.72002 8.98545 1.72012 8.98262 1.72034 8.97979C1.73162 8.75849 1.67476 8.53912 1.55768 8.35214C1.4406 8.16517 1.26909 8.01988 1.06699 7.93645L9.96571e-05 14.7733C-0.00572735 15.5963 0.244112 16.4003 0.714074 17.0708L3.45931 20.4455C3.76624 20.8214 3.91733 21.3038 3.88067 21.7907Z" fill="white"/>
<path d="M11.7974 14.8375H13.2025L13.186 9.56449H11.8139L11.7974 14.8375Z" fill="white"/>
<path d="M12.4999 6.15148L10.5734 8.91217H14.4265L12.4999 6.15148Z" fill="white"/>
<path d="M10.9141 17.023C11.3371 17.4459 11.907 17.6827 12.5005 17.6822C13.094 17.6817 13.6635 17.4439 14.0858 17.0202C14.484 16.6106 14.7173 16.0649 14.7402 15.4898H10.2597C10.2825 16.0657 10.5158 16.6124 10.9141 17.023Z" fill="white"/>
<path d="M11.1717 9.56449H10.2725L10.2595 14.8375H11.1553L11.1717 9.56449Z" fill="white"/>
<path d="M13.8282 9.56449L13.8446 14.8375H14.7404L14.7274 9.56449H13.8282Z" fill="white"/>
<path d="M12.4999 2.7346C12.5851 2.7346 12.6668 2.70024 12.727 2.63907C12.7872 2.5779 12.821 2.49494 12.821 2.40844V0.326162C12.821 0.239659 12.7872 0.156698 12.727 0.0955307C12.6668 0.0343634 12.5851 0 12.4999 0C12.4148 0 12.3331 0.0343634 12.2729 0.0955307C12.2127 0.156698 12.1789 0.239659 12.1789 0.326162V2.40844C12.1789 2.49494 12.2127 2.5779 12.2729 2.63907C12.3331 2.70024 12.4148 2.7346 12.4999 2.7346Z" fill="white"/>
<path d="M4.52984 8.42293H6.6632C6.74835 8.42293 6.83002 8.38857 6.89024 8.3274C6.95045 8.26623 6.98428 8.18327 6.98428 8.09677C6.98428 8.01026 6.95045 7.9273 6.89024 7.86613C6.83002 7.80497 6.74835 7.7706 6.6632 7.7706H4.52984C4.44468 7.7706 4.36301 7.80497 4.3028 7.86613C4.24259 7.9273 4.20876 8.01026 4.20876 8.09677C4.20876 8.18327 4.24259 8.26623 4.3028 8.3274C4.36301 8.38857 4.44468 8.42293 4.52984 8.42293Z" fill="white"/>
<path d="M18.0156 8.09677C18.0156 8.18327 18.0494 8.26623 18.1097 8.3274C18.1699 8.38857 18.2515 8.42293 18.3367 8.42293H20.4701C20.5552 8.42293 20.6369 8.38857 20.6971 8.3274C20.7573 8.26623 20.7911 8.18327 20.7911 8.09677C20.7911 8.01026 20.7573 7.9273 20.6971 7.86613C20.6369 7.80497 20.5552 7.7706 20.4701 7.7706H18.3367C18.2515 7.7706 18.1699 7.80497 18.1097 7.86613C18.0494 7.9273 18.0156 8.01026 18.0156 8.09677Z" fill="white"/>
<path d="M8.16574 4.31067C8.22748 4.37025 8.30999 4.40248 8.39512 4.40026C8.48025 4.39804 8.56102 4.36156 8.61967 4.29885C8.67832 4.23613 8.71004 4.15232 8.70786 4.06584C8.70568 3.97937 8.66977 3.89731 8.60803 3.83774L7.08916 2.37185C7.0586 2.34235 7.0226 2.31925 6.98325 2.30387C6.94389 2.2885 6.90194 2.28115 6.85978 2.28225C6.81763 2.28334 6.7761 2.29286 6.73757 2.31026C6.69904 2.32766 6.66426 2.3526 6.63521 2.38365C6.60617 2.4147 6.58343 2.45126 6.56829 2.49124C6.55316 2.53122 6.54592 2.57384 6.547 2.61666C6.54808 2.65948 6.55745 2.70167 6.57458 2.74081C6.5917 2.77995 6.61625 2.81528 6.64682 2.84479L8.16574 4.31067Z" fill="white"/>
<path d="M16.613 4.40026C16.6954 4.40037 16.7746 4.36825 16.8342 4.31056L18.353 2.84468C18.4148 2.78509 18.4507 2.70303 18.4528 2.61655C18.455 2.53007 18.4233 2.44626 18.3646 2.38354C18.306 2.32083 18.2252 2.28435 18.1401 2.28214C18.0549 2.27992 17.9724 2.31216 17.9107 2.37174L16.3919 3.83774C16.3454 3.88266 16.3132 3.94072 16.2995 4.00442C16.2857 4.06811 16.2911 4.13452 16.3149 4.19507C16.3388 4.25562 16.3799 4.30753 16.433 4.34411C16.4861 4.38068 16.5488 4.40024 16.613 4.40026Z" fill="white"/>
</svg>
