<svg width="25" height="24" viewBox="0 0 25 24" fill="none" xmlns="http://www.w3.org/2000/svg">
<path d="M11.9762 4.28578H18.4048C19.3904 4.28605 20.3386 4.66363 21.0546 5.34102C21.7706 6.0184 22.2001 6.94419 22.2549 7.92831C22.3098 8.91242 21.9858 9.8802 21.3495 10.6329C20.7132 11.3857 19.8129 11.8663 18.8334 11.9761M11.9762 4.28578C11.9762 4.96777 11.7053 5.62182 11.2231 6.10406C10.7408 6.58629 10.0868 6.85721 9.40478 6.85721C8.7228 6.85721 8.06875 6.58629 7.58651 6.10406C7.10427 5.62182 6.83336 4.96777 6.83336 4.28578M11.9762 4.28578C11.9762 3.6038 11.7053 2.94975 11.2231 2.46751C10.7408 1.98527 10.0868 1.71436 9.40478 1.71436C8.7228 1.71436 8.06875 1.98527 7.58651 2.46751C7.10427 2.94975 6.83336 3.6038 6.83336 4.28578M13.6905 12.0001H7.26193C6.27628 12.0003 5.32814 12.3779 4.61214 13.0553C3.89615 13.7327 3.46664 14.6585 3.4118 15.6426C3.35696 16.6267 3.68094 17.5945 4.31723 18.3472C4.95352 19.1 5.85384 19.5806 6.83336 19.6904M23.1191 19.7144H11.9762M6.83336 4.28578H3.40479" stroke="#6F6D6D" stroke-linecap="round" stroke-linejoin="round"/>
<path d="M20.5475 22.2619C21.5127 22.2619 22.7984 20.9761 23.119 19.6904C22.7984 18.4047 21.5127 17.119 20.5475 17.119M6.83325 19.7144C6.83325 20.3964 7.10417 21.0505 7.58641 21.5327C8.06864 22.0149 8.7227 22.2859 9.40468 22.2859C10.0867 22.2859 10.7407 22.0149 11.223 21.5327C11.7052 21.0505 11.9761 20.3964 11.9761 19.7144C11.9761 19.0324 11.7052 18.3784 11.223 17.8961C10.7407 17.4139 10.0867 17.143 9.40468 17.143C8.7227 17.143 8.06864 17.4139 7.58641 17.8961C7.10417 18.3784 6.83325 19.0324 6.83325 19.7144ZM13.6904 12.0001C13.6904 12.6821 13.9613 13.3362 14.4435 13.8184C14.9258 14.3007 15.5798 14.5716 16.2618 14.5716C16.9438 14.5716 17.5979 14.3007 18.0801 13.8184C18.5623 13.3362 18.8333 12.6821 18.8333 12.0001C18.8333 11.3182 18.5623 10.6641 18.0801 10.1819C17.5979 9.69963 16.9438 9.42871 16.2618 9.42871C15.5798 9.42871 14.9258 9.69963 14.4435 10.1819C13.9613 10.6641 13.6904 11.3182 13.6904 12.0001Z" stroke="#6F6D6D" stroke-linecap="round" stroke-linejoin="round"/>
</svg>
