<svg width="21" height="21" viewBox="0 0 21 21" fill="none" xmlns="http://www.w3.org/2000/svg">
<path d="M11 16C7.6862 16 5 13.3138 5 10C5 6.6862 7.6862 4 11 4C14.3138 4 17 6.6862 17 10C17 13.3138 14.3138 16 11 16ZM11 14.8C12.273 14.8 13.4939 14.2943 14.3941 13.3941C15.2943 12.4939 15.8 11.273 15.8 10C15.8 8.72696 15.2943 7.50606 14.3941 6.60589C13.4939 5.70571 12.273 5.2 11 5.2C9.72696 5.2 7.60589 6.60589 7.60589 6.60589L6.2 8.25V10C6.2 11.273 6.70571 12.4939 7.60589 13.3941C8.50606 14.2943 9.72696 14.8 11 14.8ZM11.6 10H14V11.2H10.4V7H11.6V10Z" fill="black"/>
</svg>
