<svg width="18" height="20" viewBox="0 0 18 20" fill="none" xmlns="http://www.w3.org/2000/svg">
<path d="M16.5299 6.55422L12.384 2.33089C12.2639 2.20914 12.1015 2.14014 11.9321 2.14014H6.0687C5.89867 2.14014 5.73632 2.20915 5.61679 2.33089L1.47024 6.55422C1.35071 6.67596 1.28296 6.84134 1.28296 7.0145V12.9865C1.28296 13.159 1.35071 13.3244 1.47024 13.4468L5.61679 17.6695C5.73632 17.7912 5.89868 17.8602 6.0687 17.8602H11.9321C12.1015 17.8602 12.2639 17.7912 12.384 17.6695L16.5299 13.4468C16.6495 13.3244 16.7172 13.159 16.7172 12.9865V7.0145C16.7172 6.84132 16.6495 6.67597 16.5299 6.55422ZM15.4388 12.7171L11.6675 16.5582H6.33325L2.56192 12.7171L2.56129 7.28405L6.33261 3.44289L11.6675 3.44224L15.4388 7.2834L15.4388 12.7171ZM10.9848 4.46972L7.01529 4.46907C6.84589 4.46907 6.68355 4.53808 6.56337 4.65982L3.75668 7.51849C3.63715 7.64088 3.5694 7.80625 3.5694 7.97877V12.0218C3.5694 12.1943 3.63716 12.3597 3.75668 12.4821L6.56337 15.3407V15.3401C6.68355 15.4625 6.84591 15.5308 7.01529 15.5308H10.9848C11.1542 15.5308 11.3165 15.4625 11.4367 15.3401L14.2434 12.4814L14.2427 12.4821C14.3629 12.3597 14.43 12.1943 14.43 12.0218V7.97877C14.43 7.80624 14.3629 7.64089 14.2427 7.51849L11.4367 4.65982C11.3165 4.53807 11.1542 4.46907 10.9848 4.46907L10.9848 4.46972ZM13.1523 11.7522L10.7202 14.2294L7.28005 14.2287L4.84792 11.7522V8.2484L7.28005 5.77124H10.7197L13.1518 8.2484L13.1523 11.7522ZM9.6392 7.28355V11.0161V11.0154C9.63408 11.3715 9.34964 11.6573 9 11.6573C8.65036 11.6573 8.36591 11.3715 8.36081 11.0154V7.2829V7.28355C8.36592 6.92744 8.65036 6.64162 9 6.64162C9.34964 6.64162 9.63409 6.92742 9.6392 7.28355ZM9 13.3682C8.65547 13.3565 8.38254 13.0681 8.38254 12.7172C8.38254 12.3663 8.65548 12.0785 9 12.0662C9.34454 12.0785 9.61747 12.3663 9.61747 12.7172C9.61747 13.0681 9.34452 13.3565 9 13.3682Z" fill="#FFCC00"/>
</svg>
