<svg width="11" height="12" viewBox="0 0 11 12" fill="none" xmlns="http://www.w3.org/2000/svg">
<path d="M0.5 1.5005C0.500012 1.41837 0.516601 1.33706 0.548796 1.26133C0.580991 1.18561 0.628145 1.11699 0.6875 1.0595C1.36865 0.399613 2.27866 0.0210472 3.23229 0.000851516C4.18591 -0.0193442 5.11149 0.320349 5.82062 0.950788L6.04 1.15338C6.49589 1.54812 7.08138 1.76574 7.6875 1.76574C8.29362 1.76574 8.87911 1.54812 9.335 1.15338L9.49063 1.01317C9.87187 0.714842 10.445 0.953258 10.4969 1.43071L10.5 1.5005V7.05942C10.5 7.14156 10.4834 7.22287 10.4512 7.29859C10.419 7.37432 10.3719 7.44293 10.3125 7.50043C9.63135 8.16031 8.72134 8.53888 7.76771 8.55907C6.81408 8.57927 5.88851 8.23958 5.17938 7.60914L4.96 7.40655C4.51846 7.02422 3.95486 6.80764 3.36795 6.79477C2.78104 6.78189 2.20827 6.97354 1.75 7.33613V11.383C1.74982 11.5405 1.68883 11.6919 1.57947 11.8063C1.47011 11.9208 1.32065 11.9897 1.16163 11.9989C1.0026 12.0082 0.846013 11.957 0.723855 11.856C0.601697 11.7549 0.52319 11.6116 0.504375 11.4553L0.5 11.383V1.5005Z" fill="black"/>
</svg>
