<svg width="21" height="21" viewBox="0 0 21 21" fill="none" xmlns="http://www.w3.org/2000/svg">
<path d="M9.56958 12.1875C9.80956 12.4375 10.1195 12.56 10.4995 12.555C10.8795 12.55 11.1594 12.4067 11.3394 12.125L13.8742 8.17188C13.9642 8.02604 13.9518 7.89313 13.837 7.77313C13.7222 7.65313 13.5946 7.64021 13.4543 7.73438L9.65957 10.375C9.38959 10.5625 9.2472 10.849 9.23241 11.2344C9.21761 11.6198 9.33 11.9375 9.56958 12.1875ZM10.4995 5C10.8595 5 11.2144 5.03125 11.5644 5.09375C11.9144 5.15625 12.2544 5.25521 12.5843 5.39062C12.7443 5.45312 12.9143 5.57042 13.0943 5.7425C13.2743 5.91458 13.3243 6.07854 13.2443 6.23438C13.1643 6.39021 12.9843 6.49437 12.7043 6.54687C12.4243 6.59937 12.1994 6.59417 12.0294 6.53125C11.7794 6.4375 11.527 6.36729 11.2722 6.32062C11.0175 6.27396 10.7599 6.25042 10.4995 6.25C9.16961 6.25 8.03711 6.73708 7.10198 7.71125C6.16686 8.68542 5.6995 9.865 5.6999 11.25C5.6999 11.6875 5.7575 12.1198 5.87269 12.5469C5.98788 12.974 6.15026 13.375 6.35984 13.75H14.6392C14.8691 13.3542 15.0367 12.9427 15.1419 12.5156C15.2471 12.0885 15.2995 11.6458 15.2991 11.1875C15.2991 10.9167 15.2765 10.651 15.2313 10.3906C15.1861 10.1302 15.1187 9.875 15.0291 9.625C14.9691 9.44792 14.9591 9.27604 14.9991 9.10938C15.0391 8.94271 15.1291 8.80208 15.2691 8.6875C15.3991 8.58333 15.5417 8.55208 15.6969 8.59375C15.8521 8.63542 15.9594 8.72917 16.019 8.875C16.169 9.23958 16.284 9.61208 16.364 9.9925C16.444 10.3729 16.489 10.7608 16.499 11.1562C16.509 11.75 16.444 12.3177 16.304 12.8594C16.164 13.401 15.959 13.9167 15.6891 14.4062C15.5791 14.5938 15.4291 14.7396 15.2391 14.8438C15.0491 14.9479 14.8491 15 14.6392 15H6.35984C6.14986 15 5.94988 14.9479 5.75989 14.8438C5.56991 14.7396 5.41992 14.5938 5.30993 14.4062C5.04995 13.9375 4.84997 13.4402 4.70998 12.9144C4.56999 12.3885 4.5 11.8337 4.5 11.25C4.5 10.3854 4.65759 9.57562 4.97276 8.82062C5.28793 8.06562 5.7179 7.40417 6.26265 6.83625C6.80741 6.26833 7.44475 5.82042 8.17469 5.4925C8.90463 5.16458 9.67957 5.00042 10.4995 5Z" fill="black"/>
</svg>
