<svg width="20" height="20" viewBox="0 0 20 20" fill="none" xmlns="http://www.w3.org/2000/svg">
<path fill-rule="evenodd" clip-rule="evenodd" d="M17 12.8001V7.09206C17.1574 7.12005 17.3186 7.12005 17.476 7.09206V12.8001C17.3186 12.772 17.1574 12.772 17 12.8001ZM2.00999 14.5561C1.92428 14.4064 1.88478 14.2346 1.89648 14.0625C1.90817 13.8904 1.97054 13.7256 2.07572 13.5889C2.18089 13.4522 2.32418 13.3496 2.48753 13.2942C2.65088 13.2387 2.82699 13.2329 2.99366 13.2773C3.16034 13.3217 3.31014 13.4145 3.42419 13.5439C3.53824 13.6734 3.61144 13.8336 3.63457 14.0046C3.65771 14.1755 3.62973 14.3495 3.55418 14.5046C3.47862 14.6597 3.35887 14.7889 3.20999 14.8761C3.11033 14.9344 3.0001 14.9724 2.88566 14.9879C2.77122 15.0034 2.65485 14.996 2.54327 14.9663C2.43169 14.9365 2.32711 14.885 2.23558 14.8145C2.14405 14.7441 2.06737 14.6563 2.00999 14.5561ZM2.00999 5.33006C2.0972 5.18188 2.22626 5.06279 2.38096 4.98775C2.53566 4.91271 2.70909 4.88508 2.87945 4.90834C3.0498 4.93159 3.20949 5.00468 3.33842 5.11843C3.46735 5.23218 3.55977 5.38151 3.60408 5.54764C3.64838 5.71377 3.64258 5.8893 3.58741 6.05214C3.53223 6.21498 3.43015 6.35788 3.29399 6.46287C3.15783 6.56786 2.99367 6.63026 2.82215 6.64221C2.65063 6.65417 2.4794 6.61515 2.32999 6.53007C2.22938 6.47308 2.14113 6.3966 2.07042 6.30511C1.9997 6.21362 1.94793 6.10896 1.91814 5.99723C1.88834 5.8855 1.88112 5.76895 1.89689 5.6544C1.91267 5.53984 1.95111 5.42958 2.00999 5.33006ZM9.99999 0.716064C10.1724 0.716076 10.341 0.767093 10.4845 0.862694C10.628 0.958296 10.74 1.09421 10.8065 1.25333C10.8729 1.41245 10.8908 1.58767 10.8579 1.75693C10.8249 1.92619 10.7427 2.08193 10.6215 2.20455C10.5002 2.32717 10.3454 2.41119 10.1766 2.44603C10.0077 2.48088 9.83227 2.46499 9.6724 2.40037C9.51253 2.33575 9.37535 2.22529 9.27813 2.08288C9.1809 1.94047 9.12797 1.77249 9.12599 1.60006C9.12467 1.48445 9.1463 1.36972 9.18963 1.26253C9.23296 1.15533 9.29713 1.0578 9.37842 0.975579C9.45971 0.893358 9.55651 0.828084 9.6632 0.783537C9.7699 0.738991 9.88437 0.716057 9.99999 0.716064ZM18 5.33006C18.0851 5.47947 18.1241 5.6507 18.1121 5.82222C18.1002 5.99374 18.0378 6.1579 17.9328 6.29406C17.8278 6.43022 17.6849 6.5323 17.5221 6.58748C17.3592 6.64265 17.1837 6.64845 17.0176 6.60415C16.8514 6.55984 16.7021 6.46742 16.5884 6.33849C16.4746 6.20956 16.4015 6.04987 16.3783 5.87952C16.355 5.70916 16.3826 5.53573 16.4577 5.38103C16.5327 5.22633 16.6518 5.09727 16.8 5.01006C16.8996 4.95146 17.0098 4.91323 17.1243 4.8976C17.2388 4.88197 17.3553 4.88926 17.4669 4.91903C17.5786 4.94881 17.6832 5.00048 17.7747 5.07104C17.8662 5.1416 17.9428 5.22965 18 5.33006ZM18 14.5561C17.9128 14.7049 17.7836 14.8247 17.6285 14.9002C17.4734 14.9758 17.2995 15.0038 17.1285 14.9806C16.9576 14.9575 16.7973 14.8843 16.6679 14.7703C16.5385 14.6562 16.4457 14.5064 16.4012 14.3397C16.3568 14.1731 16.3627 13.9969 16.4181 13.8336C16.4736 13.6703 16.5761 13.527 16.7128 13.4218C16.8496 13.3166 17.0144 13.2542 17.1865 13.2425C17.3586 13.2309 17.5303 13.2704 17.68 13.3561C17.7804 13.4132 17.8685 13.4898 17.939 13.5813C18.0096 13.6728 18.0613 13.7775 18.091 13.8891C18.1208 14.0008 18.1281 14.1172 18.1125 14.2317C18.0968 14.3462 18.0586 14.4565 18 14.5561ZM9.99999 12.8561C9.88399 12.8561 9.76799 12.8621 9.65199 12.8741L9.75399 13.2001H10.246L10.348 12.8841C10.232 12.8734 10.116 12.8674 9.99999 12.8661V12.8561ZM9.78399 13.6561L9.33799 16.5661L9.99999 17.2341L10.662 16.5661L10.216 13.6641L9.78399 13.6561ZM9.18399 12.9341L9.34599 13.4361L8.85199 16.6121C8.84701 16.6484 8.85056 16.6854 8.86237 16.7201C8.87417 16.7548 8.8939 16.7863 8.91999 16.8121L9.83399 17.7341C9.85591 17.756 9.88195 17.7734 9.9106 17.7853C9.93926 17.7972 9.96997 17.8033 10.001 17.8033C10.032 17.8033 10.0627 17.7972 10.0914 17.7853C10.12 17.7734 10.1461 17.756 10.168 17.7341L11.07 16.8241C11.0997 16.7976 11.1224 16.7643 11.136 16.7269C11.1496 16.6896 11.1537 16.6494 11.148 16.6101L10.66 13.4441L10.822 12.9421C11.7961 13.1308 12.6878 13.6167 13.3744 14.333C14.061 15.0493 14.5087 15.9608 14.656 16.9421C14.6914 17.1611 14.6628 17.3857 14.5738 17.589C14.4847 17.7923 14.339 17.9655 14.154 18.0881C12.892 18.9501 11.03 19.2881 9.99999 19.2881C8.96999 19.2881 7.10799 18.9541 5.84599 18.0881C5.66099 17.9655 5.51525 17.7923 5.42621 17.589C5.33718 17.3857 5.30863 17.1611 5.34399 16.9421C5.49126 15.9608 5.93899 15.0493 6.62558 14.333C7.31217 13.6167 8.20387 13.1308 9.17799 12.9421L9.18399 12.9341ZM10.006 7.53406C9.57088 7.53406 9.14553 7.66309 8.78374 7.90483C8.42195 8.14657 8.13997 8.49016 7.97346 8.89216C7.80695 9.29416 7.76338 9.73651 7.84827 10.1633C7.93315 10.59 8.14268 10.982 8.45036 11.2897C8.75803 11.5974 9.15004 11.8069 9.5768 11.8918C10.0036 11.9767 10.4459 11.9331 10.8479 11.7666C11.2499 11.6001 11.5935 11.3181 11.8352 10.9563C12.077 10.5945 12.206 10.1692 12.206 9.73407C12.206 9.15059 11.9742 8.59101 11.5616 8.17843C11.149 7.76585 10.5895 7.53406 10.006 7.53406ZM15.968 5.30806L11.03 2.45806C11.1311 2.33895 11.2115 2.20374 11.268 2.05806L16.2 4.89806C16.0976 5.0196 16.0176 5.15845 15.964 5.30806H15.968ZM8.96799 2.45806L4.03199 5.30806C3.97956 5.15874 3.901 5.01991 3.79999 4.89806L8.73199 2.04806C8.78845 2.19374 8.8689 2.32895 8.96999 2.44806L8.96799 2.45806ZM2.99999 7.09206V12.8001C2.84256 12.772 2.68142 12.772 2.52399 12.8001V7.09206C2.68143 7.12005 2.84256 7.12005 2.99999 7.09206ZM15.966 13.6601C15.9939 13.586 16.028 13.5144 16.068 13.4461C16.1073 13.3755 16.1528 13.3086 16.204 13.2461L14 11.9741C13.9738 11.9519 13.9431 11.9356 13.9101 11.9265C13.877 11.9174 13.8423 11.9156 13.8085 11.9212C13.7747 11.9269 13.7425 11.9398 13.7141 11.9592C13.6858 11.9786 13.6621 12.0039 13.6445 12.0334C13.627 12.0628 13.6161 12.0958 13.6126 12.1299C13.6091 12.164 13.613 12.1985 13.6242 12.231C13.6354 12.2634 13.6535 12.293 13.6773 12.3177C13.7011 12.3424 13.73 12.3617 13.762 12.3741L15.966 13.6601ZM16.2 6.63406L14 7.91207C13.973 7.93117 13.9423 7.94443 13.91 7.95103C13.8776 7.95762 13.8441 7.95739 13.8118 7.95036C13.7795 7.94332 13.7491 7.92964 13.7223 7.91017C13.6956 7.8907 13.6732 7.86588 13.6567 7.83729C13.6401 7.8087 13.6296 7.77697 13.6259 7.74411C13.6223 7.71125 13.6255 7.678 13.6354 7.64646C13.6453 7.61492 13.6617 7.58579 13.6835 7.56093C13.7053 7.53607 13.732 7.51602 13.762 7.50206L15.974 6.22406C16.0014 6.29899 16.0356 6.37128 16.076 6.44006C16.1152 6.51068 16.1608 6.57761 16.212 6.64006L16.2 6.63406ZM10.238 2.91606V5.47006C10.238 5.53319 10.2129 5.59372 10.1683 5.63836C10.1237 5.68299 10.0631 5.70806 9.99999 5.70806C9.93687 5.70806 9.87634 5.68299 9.8317 5.63836C9.78707 5.59372 9.76199 5.53319 9.76199 5.47006V2.91606C9.91954 2.94273 10.0804 2.94273 10.238 2.91606ZM4.03799 6.22406L6.24999 7.50206C6.27691 7.51848 6.30034 7.54004 6.31893 7.56551C6.33752 7.59097 6.35091 7.61985 6.35834 7.6505C6.36577 7.68114 6.36709 7.71295 6.36222 7.7441C6.35736 7.77525 6.34641 7.80514 6.32999 7.83207C6.31358 7.85899 6.29202 7.88241 6.26655 7.901C6.24109 7.91959 6.21221 7.93298 6.18156 7.94041C6.15092 7.94784 6.11911 7.94916 6.08796 7.9443C6.05681 7.93943 6.02691 7.92848 5.99999 7.91207L3.79999 6.63406C3.85124 6.57161 3.89675 6.50468 3.93599 6.43406C3.97642 6.36528 4.01056 6.29299 4.03799 6.21806V6.22406ZM3.79999 13.2501C3.85115 13.3126 3.89666 13.3795 3.93599 13.4501C3.97598 13.5184 4.01011 13.59 4.03799 13.6641L6.24999 12.3861C6.28198 12.3737 6.31088 12.3544 6.33467 12.3297C6.35847 12.305 6.37659 12.2754 6.38777 12.243C6.39896 12.2105 6.40293 12.176 6.39943 12.1419C6.39592 12.1078 6.38502 12.0748 6.36748 12.0454C6.34994 12.0159 6.32618 11.9906 6.29785 11.9712C6.26953 11.9518 6.23733 11.9389 6.20349 11.9332C6.16965 11.9276 6.13499 11.9294 6.10191 11.9385C6.06884 11.9476 6.03816 11.9639 6.01199 11.9861L3.79999 13.2501Z" fill="#9B14BC"/>
</svg>
