<svg width="20" height="20" viewBox="0 0 20 20" fill="none" xmlns="http://www.w3.org/2000/svg">
<path fill-rule="evenodd" clip-rule="evenodd" d="M16.9999 12.8001V7.09206C17.1573 7.12005 17.3185 7.12005 17.4759 7.09206V12.8001C17.3185 12.772 17.1573 12.772 16.9999 12.8001ZM2.0099 14.5561C1.92419 14.4064 1.88469 14.2346 1.89639 14.0625C1.90808 13.8904 1.97045 13.7256 2.07562 13.5889C2.1808 13.4522 2.32409 13.3496 2.48744 13.2942C2.65079 13.2387 2.82689 13.2329 2.99357 13.2773C3.16025 13.3217 3.31005 13.4145 3.4241 13.5439C3.53815 13.6734 3.61135 13.8336 3.63448 14.0046C3.65761 14.1755 3.62964 14.3495 3.55409 14.5046C3.47853 14.6597 3.35878 14.7889 3.2099 14.8761C3.11024 14.9344 3.00001 14.9724 2.88557 14.9879C2.77113 15.0034 2.65476 14.996 2.54318 14.9663C2.4316 14.9365 2.32702 14.885 2.23549 14.8145C2.14395 14.7441 2.06728 14.6563 2.0099 14.5561ZM2.0099 5.33006C2.09711 5.18188 2.22617 5.06279 2.38087 4.98775C2.53557 4.91271 2.709 4.88508 2.87935 4.90834C3.04971 4.93159 3.20939 5.00468 3.33833 5.11843C3.46726 5.23218 3.55968 5.38151 3.60398 5.54764C3.64829 5.71377 3.64249 5.8893 3.58731 6.05214C3.53214 6.21498 3.43006 6.35788 3.2939 6.46287C3.15774 6.56786 2.99358 6.63026 2.82206 6.64221C2.65054 6.65417 2.47931 6.61515 2.3299 6.53007C2.22929 6.47308 2.14104 6.3966 2.07033 6.30511C1.99961 6.21362 1.94784 6.10896 1.91805 5.99723C1.88825 5.8855 1.88103 5.76895 1.8968 5.6544C1.91257 5.53984 1.95102 5.42958 2.0099 5.33006ZM9.9999 0.716064C10.1723 0.716076 10.3409 0.767093 10.4844 0.862694C10.6279 0.958296 10.7399 1.09421 10.8064 1.25333C10.8728 1.41245 10.8907 1.58767 10.8578 1.75693C10.8248 1.92619 10.7426 2.08193 10.6214 2.20455C10.5001 2.32717 10.3453 2.41119 10.1765 2.44603C10.0076 2.48088 9.83217 2.46499 9.67231 2.40037C9.51244 2.33575 9.37526 2.22529 9.27803 2.08288C9.18081 1.94047 9.12788 1.77249 9.1259 1.60006C9.12458 1.48445 9.14621 1.36972 9.18954 1.26253C9.23287 1.15533 9.29704 1.0578 9.37833 0.975579C9.45962 0.893358 9.55642 0.828084 9.66311 0.783537C9.76981 0.738991 9.88428 0.716057 9.9999 0.716064ZM17.9999 5.33006C18.085 5.47947 18.124 5.6507 18.1121 5.82222C18.1001 5.99374 18.0377 6.1579 17.9327 6.29406C17.8277 6.43022 17.6848 6.5323 17.522 6.58748C17.3591 6.64265 17.1836 6.64845 17.0175 6.60415C16.8513 6.55984 16.702 6.46742 16.5883 6.33849C16.4745 6.20956 16.4014 6.04987 16.3782 5.87952C16.3549 5.70916 16.3826 5.53573 16.4576 5.38103C16.5326 5.22633 16.6517 5.09727 16.7999 5.01006C16.8995 4.95146 17.0097 4.91323 17.1242 4.8976C17.2387 4.88197 17.3552 4.88926 17.4668 4.91903C17.5785 4.94881 17.6831 5.00048 17.7746 5.07104C17.8661 5.1416 17.9427 5.22965 17.9999 5.33006ZM17.9999 14.5561C17.9128 14.7049 17.7835 14.8247 17.6284 14.9002C17.4733 14.9758 17.2994 15.0038 17.1284 14.9806C16.9575 14.9575 16.7972 14.8843 16.6678 14.7703C16.5384 14.6562 16.4456 14.5064 16.4011 14.3397C16.3567 14.1731 16.3626 13.9969 16.418 13.8336C16.4735 13.6703 16.576 13.527 16.7127 13.4218C16.8495 13.3166 17.0143 13.2542 17.1864 13.2425C17.3585 13.2309 17.5302 13.2704 17.6799 13.3561C17.7803 13.4132 17.8684 13.4898 17.9389 13.5813C18.0095 13.6728 18.0612 13.7775 18.0909 13.8891C18.1207 14.0008 18.128 14.1172 18.1124 14.2317C18.0967 14.3462 18.0585 14.4565 17.9999 14.5561ZM9.9999 12.8561C9.8839 12.8561 9.7679 12.8621 9.6519 12.8741L9.7539 13.2001H10.2459L10.3479 12.8841C10.2319 12.8734 10.1159 12.8674 9.9999 12.8661V12.8561ZM9.7839 13.6561L9.3379 16.5661L9.9999 17.2341L10.6619 16.5661L10.2159 13.6641L9.7839 13.6561ZM9.1839 12.9341L9.3459 13.4361L8.8519 16.6121C8.84692 16.6484 8.85047 16.6854 8.86228 16.7201C8.87408 16.7548 8.89381 16.7863 8.9199 16.8121L9.8339 17.7341C9.85582 17.756 9.88185 17.7734 9.91051 17.7853C9.93916 17.7972 9.96988 17.8033 10.0009 17.8033C10.0319 17.8033 10.0626 17.7972 10.0913 17.7853C10.12 17.7734 10.146 17.756 10.1679 17.7341L11.0699 16.8241C11.0996 16.7976 11.1223 16.7643 11.1359 16.7269C11.1495 16.6896 11.1536 16.6494 11.1479 16.6101L10.6599 13.4441L10.8219 12.9421C11.796 13.1308 12.6877 13.6167 13.3743 14.333C14.0609 15.0493 14.5086 15.9608 14.6559 16.9421C14.6913 17.1611 14.6627 17.3857 14.5737 17.589C14.4846 17.7923 14.3389 17.9655 14.1539 18.0881C12.8919 18.9501 11.0299 19.2881 9.9999 19.2881C8.9699 19.2881 7.1079 18.9541 5.8459 18.0881C5.6609 17.9655 5.51516 17.7923 5.42612 17.589C5.33709 17.3857 5.30854 17.1611 5.3439 16.9421C5.49117 15.9608 5.9389 15.0493 6.62549 14.333C7.31208 13.6167 8.20378 13.1308 9.1779 12.9421L9.1839 12.9341ZM10.0059 7.53406C9.57078 7.53406 9.14544 7.66309 8.78365 7.90483C8.42186 8.14657 8.13988 8.49016 7.97337 8.89216C7.80685 9.29416 7.76329 9.73651 7.84818 10.1633C7.93306 10.59 8.14259 10.982 8.45027 11.2897C8.75794 11.5974 9.14995 11.8069 9.5767 11.8918C10.0035 11.9767 10.4458 11.9331 10.8478 11.7666C11.2498 11.6001 11.5934 11.3181 11.8351 10.9563C12.0769 10.5945 12.2059 10.1692 12.2059 9.73407C12.2059 9.15059 11.9741 8.59101 11.5615 8.17843C11.149 7.76585 10.5894 7.53406 10.0059 7.53406ZM15.9679 5.30806L11.0299 2.45806C11.131 2.33895 11.2114 2.20374 11.2679 2.05806L16.1999 4.89806C16.0975 5.0196 16.0176 5.15845 15.9639 5.30806H15.9679ZM8.9679 2.45806L4.0319 5.30806C3.97947 5.15874 3.90091 5.01991 3.7999 4.89806L8.7319 2.04806C8.78836 2.19374 8.8688 2.32895 8.9699 2.44806L8.9679 2.45806ZM2.9999 7.09206V12.8001C2.84247 12.772 2.68133 12.772 2.5239 12.8001V7.09206C2.68134 7.12005 2.84247 7.12005 2.9999 7.09206ZM15.9659 13.6601C15.9938 13.586 16.0279 13.5144 16.0679 13.4461C16.1072 13.3755 16.1527 13.3086 16.2039 13.2461L13.9999 11.9741C13.9737 11.9519 13.9431 11.9356 13.91 11.9265C13.8769 11.9174 13.8422 11.9156 13.8084 11.9212C13.7746 11.9269 13.7424 11.9398 13.714 11.9592C13.6857 11.9786 13.662 12.0039 13.6444 12.0334C13.6269 12.0628 13.616 12.0958 13.6125 12.1299C13.609 12.164 13.6129 12.1985 13.6241 12.231C13.6353 12.2634 13.6534 12.293 13.6772 12.3177C13.701 12.3424 13.7299 12.3617 13.7619 12.3741L15.9659 13.6601ZM16.1999 6.63406L13.9999 7.91207C13.9729 7.93117 13.9423 7.94443 13.9099 7.95103C13.8775 7.95762 13.8441 7.95739 13.8117 7.95036C13.7794 7.94332 13.749 7.92964 13.7222 7.91017C13.6955 7.8907 13.6732 7.86588 13.6566 7.83729C13.64 7.8087 13.6295 7.77697 13.6259 7.74411C13.6222 7.71125 13.6254 7.678 13.6353 7.64646C13.6453 7.61492 13.6616 7.58579 13.6834 7.56093C13.7052 7.53607 13.7319 7.51602 13.7619 7.50206L15.9739 6.22406C16.0013 6.29899 16.0355 6.37128 16.0759 6.44006C16.1151 6.51068 16.1607 6.57761 16.2119 6.64006L16.1999 6.63406ZM10.2379 2.91606V5.47006C10.2379 5.53319 10.2128 5.59372 10.1682 5.63836C10.1236 5.68299 10.063 5.70806 9.9999 5.70806C9.93678 5.70806 9.87625 5.68299 9.83161 5.63836C9.78698 5.59372 9.7619 5.53319 9.7619 5.47006V2.91606C9.91945 2.94273 10.0804 2.94273 10.2379 2.91606ZM4.0379 6.22406L6.2499 7.50206C6.27682 7.51848 6.30025 7.54004 6.31884 7.56551C6.33743 7.59097 6.35082 7.61985 6.35825 7.6505C6.36568 7.68114 6.367 7.71295 6.36213 7.7441C6.35727 7.77525 6.34632 7.80514 6.3299 7.83207C6.31349 7.85899 6.29193 7.88241 6.26646 7.901C6.24099 7.91959 6.21211 7.93298 6.18147 7.94041C6.15083 7.94784 6.11902 7.94916 6.08787 7.9443C6.05671 7.93943 6.02682 7.92848 5.9999 7.91207L3.7999 6.63406C3.85115 6.57161 3.89666 6.50468 3.9359 6.43406C3.97633 6.36528 4.01047 6.29299 4.0379 6.21806V6.22406ZM3.7999 13.2501C3.85106 13.3126 3.89657 13.3795 3.9359 13.4501C3.97589 13.5184 4.01001 13.59 4.0379 13.6641L6.2499 12.3861C6.28189 12.3737 6.31079 12.3544 6.33458 12.3297C6.35838 12.305 6.3765 12.2754 6.38768 12.243C6.39886 12.2105 6.40284 12.176 6.39934 12.1419C6.39583 12.1078 6.38493 12.0748 6.36739 12.0454C6.34984 12.0159 6.32608 11.9906 6.29776 11.9712C6.26944 11.9518 6.23724 11.9389 6.2034 11.9332C6.16956 11.9276 6.1349 11.9294 6.10182 11.9385C6.06875 11.9476 6.03806 11.9639 6.0119 11.9861L3.7999 13.2501Z" fill="white"/>
</svg>
