<svg width="18" height="20" viewBox="0 0 18 20" fill="none" xmlns="http://www.w3.org/2000/svg">
<path fill-rule="evenodd" clip-rule="evenodd" d="M7.78549 13.9338C8.24636 12.9442 8.34799 12.025 8.16582 11.053C10.4382 8.95665 14.3847 9.91887 14.6589 12.9293C14.8839 15.3955 11.9385 17.7647 9.39947 16.124C6.9302 16.3818 5.24393 16.2509 4.33951 15.7301C4.11004 15.4684 3.98731 15.0869 3.97005 14.5849C2.1694 11.4599 3.73163 9.20792 4.30691 5.40008C4.57986 3.59542 9.05744 2.95158 9.41613 3.55308C9.73381 4.41637 10.0425 5.70275 9.28701 6.27642C9.32472 5.59998 9.2461 4.75363 9.01279 4.29142C8.95846 4.22371 8.86577 4.20418 8.78907 4.24389C8.713 4.28295 8.67465 4.37215 8.69702 4.45547C8.95846 4.97371 9.00192 6.17614 8.86705 6.78681C8.70087 6.96714 8.48609 7.05829 8.22401 7.05894C8.23808 7.00686 8.24639 6.95282 8.25086 6.89748C8.30264 6.20152 8.33332 5.11615 7.90122 4.52632C7.86478 4.47098 7.80086 4.44038 7.73567 4.44689C7.66983 4.45405 7.61358 4.49637 7.58865 4.55887C7.56372 4.62137 7.57459 4.69168 7.61677 4.74312C7.88268 5.1051 7.97601 5.81408 7.89738 6.87012C7.87628 7.1403 7.66215 7.34863 7.39688 7.35775C6.8363 7.37598 6.37032 7.11622 5.98998 6.64812C6.0245 6.15332 6.16129 5.98797 6.90789 6.08497C6.21883 5.84343 5.88388 5.58172 5.90242 5.30177C5.90242 5.20672 5.82955 5.12598 5.73623 5.12013C5.64291 5.11362 5.55982 5.18329 5.54831 5.27834C5.53041 5.55372 5.66657 5.77379 5.86663 5.94695C5.73815 6.09083 5.6589 6.30829 5.63653 6.62274L5.6263 6.76792L5.71771 6.87925C6.0143 7.24448 6.37481 7.51466 6.79476 7.64096C6.73659 9.27183 8.75513 11.0081 7.4653 13.7796C7.42758 13.8695 7.46593 13.9723 7.55287 14.014C7.63852 14.055 7.74138 14.0198 7.78549 13.9338ZM13.8893 9.16682C13.819 9.24624 13.826 9.36863 13.904 9.44025C13.9826 9.51187 14.1028 9.5047 14.1731 9.42528L14.8225 8.68504C14.8928 8.60562 14.8858 8.48323 14.8078 8.41161C14.7299 8.34065 14.609 8.34716 14.5394 8.42658L13.8893 9.16682ZM11.2507 8.35757C11.2507 8.46499 11.3363 8.55223 11.4418 8.55223C11.5479 8.55223 11.6329 8.46499 11.6329 8.35757V7.36538C11.6329 7.25731 11.5479 7.17072 11.4418 7.17072C11.337 7.17072 11.2507 7.25731 11.2507 7.36538V8.35757ZM8.71102 9.42527C8.78133 9.50469 8.90151 9.51186 8.98012 9.44024C9.0581 9.36863 9.0645 9.24622 8.99482 9.16681L8.34474 8.42658C8.27507 8.34715 8.15426 8.34064 8.07628 8.4116C7.9983 8.48322 7.99127 8.60562 8.06158 8.68503L8.71102 9.42527Z" fill="#9B14BC"/>
</svg>
