<svg width="18" height="20" viewBox="0 0 18 20" fill="none" xmlns="http://www.w3.org/2000/svg">
<path fill-rule="evenodd" clip-rule="evenodd" d="M7.78549 13.9337C8.24636 12.9441 8.34799 12.0249 8.16582 11.0529C10.4382 8.95653 14.3847 9.91875 14.6589 12.9292C14.8839 15.3954 11.9385 17.7645 9.39947 16.1239C6.9302 16.3817 5.24393 16.2508 4.33951 15.73C4.11004 15.4683 3.98731 15.0867 3.97005 14.5848C2.1694 11.4598 3.73163 9.2078 4.30691 5.39996C4.57986 3.5953 9.05744 2.95146 9.41613 3.55296C9.73381 4.41625 10.0425 5.70263 9.28701 6.2763C9.32472 5.59986 9.2461 4.75351 9.01279 4.2913C8.95846 4.22359 8.86577 4.20406 8.78907 4.24377C8.713 4.28283 8.67465 4.37202 8.69702 4.45535C8.95846 4.97359 9.00192 6.17602 8.86705 6.78669C8.70087 6.96702 8.48609 7.05817 8.22401 7.05882C8.23808 7.00674 8.24639 6.9527 8.25086 6.89736C8.30264 6.20139 8.33332 5.11603 7.90122 4.52619C7.86478 4.47086 7.80086 4.44026 7.73567 4.44677C7.66983 4.45393 7.61358 4.49625 7.58865 4.55875C7.56372 4.62125 7.57459 4.69156 7.61677 4.743C7.88268 5.10498 7.97601 5.81396 7.89738 6.87C7.87628 7.14018 7.66215 7.34851 7.39688 7.35763C6.8363 7.37586 6.37032 7.1161 5.98998 6.648C6.0245 6.1532 6.16129 5.98785 6.90789 6.08485C6.21883 5.84331 5.88388 5.5816 5.90242 5.30165C5.90242 5.20659 5.82955 5.12586 5.73623 5.12001C5.64291 5.1135 5.55982 5.18316 5.54831 5.27822C5.53041 5.5536 5.66657 5.77367 5.86663 5.94683C5.73815 6.09071 5.6589 6.30817 5.63653 6.62262L5.6263 6.7678L5.71771 6.87913C6.0143 7.24436 6.37481 7.51454 6.79476 7.64084C6.73659 9.27171 8.75513 11.008 7.4653 13.7795C7.42758 13.8694 7.46593 13.9722 7.55287 14.0139C7.63852 14.0549 7.74138 14.0196 7.78549 13.9337ZM13.8893 9.1667C13.819 9.24612 13.826 9.36851 13.904 9.44013C13.9826 9.51174 14.1028 9.50458 14.1731 9.42515L14.8225 8.68492C14.8928 8.60549 14.8858 8.48311 14.8078 8.41149C14.7299 8.34053 14.609 8.34704 14.5394 8.42646L13.8893 9.1667ZM11.2507 8.35745C11.2507 8.46487 11.3363 8.55211 11.4418 8.55211C11.5479 8.55211 11.6329 8.46487 11.6329 8.35745V7.36526C11.6329 7.25719 11.5479 7.1706 11.4418 7.1706C11.337 7.1706 11.2507 7.25718 11.2507 7.36526V8.35745ZM8.71102 9.42515C8.78133 9.50457 8.90151 9.51173 8.98012 9.44012C9.0581 9.3685 9.0645 9.2461 8.99482 9.16669L8.34474 8.42645C8.27507 8.34703 8.15426 8.34052 8.07628 8.41148C7.9983 8.48309 7.99127 8.6055 8.06158 8.68491L8.71102 9.42515Z" fill="#26C6DA"/>
</svg>
