<svg width="22" height="21" viewBox="0 0 22 21" fill="none" xmlns="http://www.w3.org/2000/svg">
<g clip-path="url(#clip0_1256_2445)">
<path d="M11.6111 9.875V1.14844C11.6111 0.796875 11.8785 0.5 12.2222 0.5C16.9469 0.5 20.7778 4.41797 20.7778 9.25C20.7778 9.60156 20.4875 9.875 20.1438 9.875H11.6111ZM1.22223 11.125C1.22223 6.38672 4.66355 2.46484 9.12848 1.83984C9.47987 1.78906 9.77778 2.07812 9.77778 2.44141V11.75L15.7552 17.8633C16.0111 18.125 15.992 18.5547 15.6979 18.7656C14.2007 19.8594 12.3674 20.5 10.3889 20.5C5.32813 20.5 1.22223 16.3047 1.22223 11.125ZM21.3278 11.75C21.683 11.75 21.9618 12.0547 21.916 12.4141C21.6219 14.5977 20.5944 16.5391 19.0934 17.9727C18.8642 18.1914 18.5052 18.1758 18.2837 17.9453L12.2222 11.75H21.3278Z" fill="#9B14BC"/>
</g>
<defs>
<clipPath id="clip0_1256_2445">
<rect width="22" height="20" fill="white" transform="translate(0 0.5)"/>
</clipPath>
</defs>
</svg>
