<svg width="145" height="179" viewBox="0 0 145 179" fill="none" xmlns="http://www.w3.org/2000/svg">
<mask id="path-1-outside-1_26_186" maskUnits="userSpaceOnUse" x="3.47974" y="-0.802399" width="108" height="132" fill="black">
<rect fill="white" x="3.47974" y="-0.802399" width="108" height="132"/>
<path d="M86.1428 4.20541C86.461 4.23783 86.7592 4.3817 86.9827 4.61459L106.026 24.4798C106.267 24.7319 106.403 25.0681 106.403 25.4173V64.7669L74.3186 86.5892L106.264 107.327C105.737 112.037 103.707 116.461 100.448 119.86C96.6282 123.845 91.4335 126.095 86.0051 126.095H28.8772C23.4487 126.095 18.2541 123.845 14.4338 119.86C10.6156 115.877 8.47988 110.486 8.47974 104.876V25.4173C8.47974 19.8078 10.6155 14.4162 14.4338 10.433C18.2542 6.44775 23.4487 4.19761 28.8772 4.1976H86.0051L86.1428 4.20541Z"/>
</mask>
<path d="M86.1428 4.20541L86.5588 0.122774C86.4977 0.116554 86.4365 0.111705 86.3753 0.108229L86.1428 4.20541ZM86.9827 4.61459L89.9451 1.77475L89.9439 1.77341L86.9827 4.61459ZM106.026 24.4798L108.988 21.6402L108.988 21.64L106.026 24.4798ZM106.403 64.7669L108.711 68.1602C109.834 67.3961 110.506 66.1256 110.506 64.7669H106.403ZM74.3186 86.5892L72.0106 83.1959C70.8743 83.9688 70.2003 85.2591 70.2151 86.6333C70.2298 88.0074 70.9314 89.283 72.0841 90.0313L74.3186 86.5892ZM106.264 107.327L110.342 107.783C110.515 106.24 109.801 104.731 108.498 103.885L106.264 107.327ZM100.448 119.86L103.411 122.7L103.411 122.7L100.448 119.86ZM28.8772 126.095L28.8772 130.199H28.8772V126.095ZM14.4338 119.86L11.4714 122.7L11.4714 122.7L14.4338 119.86ZM8.47974 104.876H4.37596V104.876L8.47974 104.876ZM8.47974 25.4173H4.37596H8.47974ZM14.4338 10.433L11.4714 7.59308L11.4714 7.5931L14.4338 10.433ZM28.8772 4.1976V0.0938272H28.8772L28.8772 4.1976ZM86.0051 4.1976L86.2376 0.100417C86.1602 0.0960245 86.0827 0.0938272 86.0051 0.0938272V4.1976ZM86.1428 4.20541L85.7269 8.28805C85.0846 8.22262 84.4781 7.9317 84.0215 7.45578L86.9827 4.61459L89.9439 1.77341C89.0403 0.831701 87.8373 0.253035 86.5588 0.122774L86.1428 4.20541ZM86.9827 4.61459L84.0202 7.45444L103.063 27.3197L106.026 24.4798L108.988 21.64L89.9451 1.77475L86.9827 4.61459ZM106.026 24.4798L103.063 27.3195C102.574 26.8088 102.299 26.1282 102.299 25.4173H106.403H110.506C110.506 24.0081 109.961 22.655 108.988 21.6402L106.026 24.4798ZM106.403 25.4173H102.299V64.7669H106.403H110.506V25.4173H106.403ZM106.403 64.7669L104.095 61.3737L72.0106 83.1959L74.3186 86.5892L76.6266 89.9825L108.711 68.1602L106.403 64.7669ZM74.3186 86.5892L72.0841 90.0313L104.029 110.77L106.264 107.327L108.498 103.885L76.5531 83.1471L74.3186 86.5892ZM106.264 107.327L102.186 106.872C101.756 110.711 100.103 114.29 97.486 117.02L100.448 119.86L103.411 122.7C107.31 118.632 109.718 113.363 110.342 107.783L106.264 107.327ZM100.448 119.86L97.4861 117.02C94.4207 120.217 90.2878 121.991 86.0051 121.991V126.095V130.199C92.5793 130.199 98.8357 127.472 103.411 122.7L100.448 119.86ZM86.0051 126.095V121.991H28.8772V126.095V130.199H86.0051V126.095ZM28.8772 126.095L28.8772 121.991C24.5945 121.991 20.4617 120.217 17.3963 117.02L14.4338 119.86L11.4714 122.7C16.0466 127.472 22.303 130.199 28.8772 130.199L28.8772 126.095ZM14.4338 119.86L17.3963 117.02C14.3274 113.818 12.5836 109.452 12.5835 104.876L8.47974 104.876L4.37596 104.876C4.37613 111.519 6.90374 117.935 11.4714 122.7L14.4338 119.86ZM8.47974 104.876H12.5835V25.4173H8.47974H4.37596V104.876H8.47974ZM8.47974 25.4173H12.5835C12.5835 20.8413 14.3274 16.4743 17.3963 13.2728L14.4338 10.433L11.4714 7.5931C6.90356 12.3581 4.37596 18.7743 4.37596 25.4173H8.47974ZM14.4338 10.433L17.3963 13.2728C20.4617 10.0751 24.5944 8.30138 28.8772 8.30138L28.8772 4.1976L28.8772 0.0938272C22.303 0.0938325 16.0466 2.82037 11.4714 7.59308L14.4338 10.433ZM28.8772 4.1976V8.30138H86.0051V4.1976V0.0938272H28.8772V4.1976ZM86.0051 4.1976L85.7727 8.29479L85.9104 8.3026L86.1428 4.20541L86.3753 0.108229L86.2376 0.100417L86.0051 4.1976Z" fill="white" mask="url(#path-1-outside-1_26_186)"/>
<path d="M87.2205 3.17924V14.5084C87.2205 17.513 88.302 20.3946 90.2271 22.5193C92.1522 24.6439 94.7632 25.8375 97.4857 25.8375H107.751" fill="white"/>
<path d="M87.2205 3.17924V14.5084C87.2205 17.513 88.302 20.3946 90.2271 22.5193C92.1522 24.6439 94.7632 25.8375 97.4857 25.8375H107.751" stroke="white" stroke-width="2.70807" stroke-linecap="round" stroke-linejoin="round"/>
<path d="M129.922 65.6544L129.922 63.6025H129.922V65.6544ZM135.37 71.3546L137.422 71.3548V71.3546H135.37ZM129.922 77.0538V79.1057L129.922 79.1057L129.922 77.0538ZM124.479 71.6241L126.529 71.5312L126.44 69.5722H124.479V71.6241ZM101.553 71.6241L101.551 73.676H101.553V71.6241ZM101.282 71.3536L99.2303 71.351V71.3536H101.282ZM101.553 71.0831V69.0312L101.551 69.0312L101.553 71.0831ZM124.479 71.0831V73.135H126.44L126.529 71.1765L124.479 71.0831ZM129.922 65.6544L129.922 67.7063C131.751 67.7064 133.318 69.2916 133.318 71.3546H135.37H137.422C137.422 67.2765 134.26 63.6029 129.922 63.6025L129.922 65.6544ZM135.37 71.3546L133.318 71.3544C133.318 73.417 131.751 75.0017 129.922 75.0019L129.922 77.0538L129.922 79.1057C134.26 79.1053 137.422 75.4327 137.422 71.3548L135.37 71.3546ZM129.922 77.0538V75.0019C128.145 75.0019 126.619 73.5118 126.529 71.5312L124.479 71.6241L122.43 71.717C122.608 75.6427 125.712 79.1057 129.922 79.1057V77.0538ZM124.479 71.6241V69.5722H101.553V71.6241V73.676H124.479V71.6241ZM101.553 71.6241L101.555 69.5722C102.535 69.5731 103.334 70.368 103.334 71.3536H101.282H99.2303C99.2303 72.6382 100.272 73.6748 101.551 73.676L101.553 71.6241ZM101.282 71.3536L103.334 71.3562C103.333 72.3373 102.538 73.1341 101.555 73.135L101.553 71.0831L101.551 69.0312C100.269 69.0324 99.232 70.0712 99.2303 71.351L101.282 71.3536ZM101.553 71.0831V73.135H124.479V71.0831V69.0312H101.553V71.0831ZM124.479 71.0831L126.529 71.1765C126.619 69.1961 128.146 67.7063 129.922 67.7063V65.6544V63.6025C125.713 63.6025 122.609 67.0649 122.43 70.9897L124.479 71.0831Z" fill="white"/>
<path d="M108.233 80.8633L108.234 78.8115H108.233V80.8633ZM113.753 86.5635L115.805 86.5637V86.5635H113.753ZM108.233 92.2628V94.3146L108.234 94.3146L108.233 92.2628ZM102.72 86.8331L104.769 86.7394L104.68 84.7812H102.72V86.8331ZM79.1006 86.5626L77.0487 86.5599V86.5626H79.1006ZM102.72 86.2921V88.3439H104.68L104.769 86.3862L102.72 86.2921ZM108.233 80.8633L108.233 82.9152C110.115 82.9155 111.701 84.515 111.701 86.5635H113.753H115.805C115.805 82.4261 112.555 78.8121 108.234 78.8115L108.233 80.8633ZM113.753 86.5635L111.701 86.5633C111.701 88.6115 110.115 90.2106 108.233 90.2109L108.233 92.2628L108.234 94.3146C112.554 94.314 115.804 90.701 115.805 86.5637L113.753 86.5635ZM108.233 92.2628V90.2109C106.406 90.2109 104.859 88.7058 104.769 86.7394L102.72 86.8331L100.67 86.9268C100.852 90.907 104.039 94.3146 108.233 94.3146V92.2628ZM102.72 86.8331V84.7812H79.3711V86.8331V88.885H102.72V86.8331ZM79.3711 86.8331V84.7812C80.3548 84.7812 81.1525 85.5789 81.1525 86.5626H79.1006H77.0487C77.0487 87.8453 78.0883 88.885 79.3711 88.885V86.8331ZM79.1006 86.5626L81.1525 86.5653C81.1512 87.5443 80.3576 88.3439 79.3711 88.3439V86.2921V84.2402C78.0857 84.2402 77.0504 85.282 77.0487 86.5599L79.1006 86.5626ZM79.3711 86.2921V88.3439H102.72V86.2921V84.2402H79.3711V86.2921ZM102.72 86.2921L104.769 86.3862C104.86 84.42 106.406 82.9152 108.233 82.9152V80.8633V78.8115C104.039 78.8115 100.853 82.2186 100.67 86.1979L102.72 86.2921Z" fill="white"/>
<path d="M131.605 96.0723L131.606 94.0204H131.605V96.0723ZM137.125 101.773L139.177 101.773V101.773H137.125ZM131.605 107.472V109.524L131.606 109.524L131.605 107.472ZM126.092 102.042L128.142 101.948L128.052 99.9902H126.092V102.042ZM102.473 101.772L100.421 101.769V101.772H102.473ZM126.092 101.501V103.553H128.052L128.142 101.595L126.092 101.501ZM131.605 96.0723L131.605 98.1242C133.487 98.1245 135.073 99.724 135.073 101.773H137.125H139.177C139.177 97.6351 135.927 94.0211 131.606 94.0204L131.605 96.0723ZM137.125 101.773L135.073 101.772C135.073 103.82 133.487 105.42 131.605 105.42L131.605 107.472L131.606 109.524C135.926 109.523 139.176 105.91 139.177 101.773L137.125 101.773ZM131.605 107.472V105.42C129.778 105.42 128.231 103.915 128.142 101.948L126.092 102.042L124.042 102.136C124.224 106.116 127.411 109.524 131.605 109.524V107.472ZM126.092 102.042V99.9902H102.743V102.042V104.094H126.092V102.042ZM102.743 102.042V99.9902C103.727 99.9902 104.525 100.788 104.525 101.772H102.473H100.421C100.421 103.054 101.46 104.094 102.743 104.094V102.042ZM102.473 101.772L104.525 101.774C104.523 102.753 103.729 103.553 102.743 103.553V101.501V99.4491C101.458 99.4491 100.422 100.491 100.421 101.769L102.473 101.772ZM102.743 101.501V103.553H126.092V101.501V99.4491H102.743V101.501ZM126.092 101.501L128.142 101.595C128.232 99.629 129.778 98.1242 131.605 98.1242V96.0723V94.0204C127.411 94.0204 124.225 97.4275 124.042 101.407L126.092 101.501Z" fill="white"/>
<path d="M37.2072 51.1311C33.5242 51.1311 30.7078 50.037 28.758 47.8489C26.8082 45.6391 25.8333 42.6277 25.8333 38.8147C25.8333 36.3016 26.3424 34.1135 27.3606 32.2504C28.4005 30.3655 29.8196 28.914 31.6177 27.8958C33.4159 26.8775 35.4524 26.3684 37.7271 26.3684C38.6804 26.3684 39.6011 26.4334 40.4894 26.5634C41.3776 26.6717 42.4284 26.8234 43.6416 27.0184C44.5515 27.17 45.0498 27.2458 45.1364 27.2458L44.779 33.9402H41.7893L40.7818 29.2931C40.5435 29.0548 40.1319 28.8599 39.547 28.7082C38.962 28.5566 38.2146 28.4807 37.3047 28.4807C35.4632 28.4807 33.9792 29.3365 32.8526 31.048C31.7477 32.7378 31.1953 35.1967 31.1953 38.4248C31.1953 41.5445 31.726 44.0901 32.7876 46.0615C33.8492 48.033 35.3982 49.0188 37.4347 49.0188C38.4096 49.0188 39.157 48.9321 39.677 48.7588C40.2186 48.5638 40.6735 48.293 41.0418 47.9464L42.4717 44.5992L45.2014 44.8592L44.5515 49.8962C44.0965 49.9395 43.6416 50.0262 43.1866 50.1561C42.7533 50.2645 42.4825 50.3295 42.3742 50.3511C41.5076 50.5894 40.6952 50.7736 39.9369 50.9036C39.2003 51.0552 38.2904 51.1311 37.2072 51.1311ZM45.6955 26.6284H55.5745V28.6432L52.8123 29.0657L57.6543 43.6243L58.5967 46.9065L59.4092 43.5918L63.9587 29.0657L61.3915 28.6432V26.6284H69.2557V28.6432L67.1759 29.0657L59.7016 51.0011H55.8345L47.6453 29.0657L45.6955 28.6432V26.6284Z" fill="white"/>
<path d="M24.8909 103.544H61.3095" stroke="white" stroke-width="4.10377" stroke-linecap="round" stroke-linejoin="round"/>
<path d="M24.8909 81.9717H61.3095" stroke="white" stroke-width="4.10377" stroke-linecap="round" stroke-linejoin="round"/>
<path d="M24.8909 92.9904H53.5055" stroke="white" stroke-width="4.10377" stroke-linecap="round" stroke-linejoin="round"/>
<path d="M12.4784 178.352C8.75766 178.352 5.91238 177.246 3.94257 175.036C1.97276 172.803 0.98785 169.761 0.98785 165.909C0.98785 163.37 1.50219 161.16 2.53087 159.277C3.58144 157.373 5.01502 155.907 6.83162 154.878C8.64823 153.849 10.7056 153.335 13.0037 153.335C13.9667 153.335 14.8969 153.401 15.7943 153.532C16.6916 153.642 17.7531 153.795 18.9788 153.992C19.898 154.145 20.4014 154.222 20.489 154.222L20.1279 160.985H17.1075L16.0897 156.29C15.849 156.049 15.4331 155.852 14.8422 155.699C14.2512 155.546 13.4962 155.469 12.5769 155.469C10.7165 155.469 9.21729 156.334 8.07917 158.063C6.96295 159.77 6.40483 162.254 6.40483 165.515C6.40483 168.667 6.94106 171.238 8.01351 173.23C9.08596 175.222 10.6509 176.218 12.7082 176.218C13.6931 176.218 14.4482 176.13 14.9735 175.955C15.5207 175.758 15.9803 175.485 16.3524 175.134L17.7969 171.753L20.5546 172.015L19.898 177.104C19.4384 177.148 18.9788 177.235 18.5192 177.367C18.0814 177.476 17.8079 177.542 17.6984 177.564C16.8229 177.805 16.0022 177.991 15.2362 178.122C14.492 178.275 13.5728 178.352 12.4784 178.352ZM21.0538 153.598H31.0341V155.633L28.2436 156.06L33.1353 170.768L34.0874 174.084L34.9081 170.735L39.5043 156.06L36.9107 155.633V153.598H44.8557V155.633L42.7545 156.06L35.2036 178.22H31.2968L23.0236 156.06L21.0538 155.633V153.598ZM49.5676 156.749C48.7796 156.749 48.1559 156.52 47.6962 156.06C47.2366 155.6 47.0068 155.009 47.0068 154.287C47.0068 153.455 47.2694 152.766 47.7947 152.219C48.32 151.672 49.0204 151.398 49.8959 151.398C50.7713 151.398 51.4389 151.639 51.8985 152.12C52.3581 152.58 52.5879 153.16 52.5879 153.86C52.5879 154.736 52.3253 155.436 51.8 155.962C51.2747 156.487 50.5415 156.749 49.6004 156.749H49.5676ZM47.8276 162.856L45.4966 162.232V160.032L51.5045 159.31H51.5702L52.4894 159.967V175.758L54.6891 176.021V177.991H45.5294V176.021L47.8276 175.725V162.856ZM60.6865 175.298C60.8616 175.561 61.2555 175.813 61.8684 176.054C62.5031 176.272 63.1378 176.382 63.7725 176.382C64.8012 176.382 65.5672 176.174 66.0706 175.758C66.5959 175.32 66.8586 174.751 66.8586 174.051C66.8586 173.329 66.5412 172.749 65.9065 172.311C65.2718 171.851 64.1993 171.293 62.6891 170.637L61.7699 170.243C60.2597 169.608 59.1325 168.842 58.3884 167.945C57.6442 167.047 57.2721 165.887 57.2721 164.465C57.2721 163.48 57.5676 162.604 58.1585 161.838C58.7495 161.05 59.5812 160.437 60.6536 160C61.7261 159.562 62.9627 159.343 64.3635 159.343C65.3921 159.343 66.2676 159.409 66.9899 159.54C67.734 159.671 68.511 159.846 69.3208 160.065C69.7586 160.218 70.0869 160.306 70.3057 160.328V164.629H67.7121L66.957 162.134C66.8257 161.915 66.5302 161.718 66.0706 161.543C65.611 161.368 65.0857 161.28 64.4948 161.28C63.5974 161.28 62.8752 161.477 62.328 161.871C61.8027 162.243 61.5401 162.768 61.5401 163.447C61.5401 164.06 61.7261 164.574 62.0982 164.99C62.4702 165.384 62.8752 165.69 63.3129 165.909C63.7506 166.128 64.5604 166.489 65.7423 166.992C66.9242 167.496 67.8982 167.977 68.6642 168.437C69.4521 168.897 70.0978 169.498 70.6012 170.243C71.1265 170.965 71.3891 171.851 71.3891 172.902C71.3891 174.522 70.7544 175.835 69.485 176.842C68.2155 177.848 66.388 178.352 64.0023 178.352C62.8861 178.352 61.8793 178.253 60.9819 178.056C60.1065 177.859 59.0887 177.597 57.9287 177.268L57.2065 177.038V172.705H59.9314L60.6865 175.298ZM77.9734 156.749C77.1854 156.749 76.5617 156.52 76.102 156.06C75.6424 155.6 75.4126 155.009 75.4126 154.287C75.4126 153.455 75.6753 152.766 76.2005 152.219C76.7258 151.672 77.4262 151.398 78.3017 151.398C79.1771 151.398 79.8447 151.639 80.3043 152.12C80.7639 152.58 80.9937 153.16 80.9937 153.86C80.9937 154.736 80.7311 155.436 80.2058 155.962C79.6805 156.487 78.9473 156.749 78.0062 156.749H77.9734ZM76.2334 162.856L73.9024 162.232V160.032L79.9104 159.31H79.976L80.8953 159.967V175.758L83.0949 176.021V177.991H73.9353V176.021L76.2334 175.725V162.856ZM85.4481 168.897C85.4481 166.839 85.853 165.088 86.6629 163.644C87.4946 162.199 88.5998 161.116 89.9787 160.394C91.3576 159.649 92.8568 159.277 94.4764 159.277C97.2342 159.277 99.3572 160.131 100.845 161.838C102.356 163.523 103.111 165.822 103.111 168.732C103.111 170.812 102.695 172.585 101.863 174.051C101.053 175.495 99.9591 176.579 98.5802 177.301C97.2232 178.002 95.724 178.352 94.0825 178.352C91.3466 178.352 89.2236 177.509 87.7134 175.824C86.2032 174.117 85.4481 171.808 85.4481 168.897ZM94.3451 176.218C96.8183 176.218 98.0549 173.832 98.0549 169.061C98.0549 166.566 97.7595 164.672 97.1685 163.381C96.5776 162.068 95.6146 161.411 94.2795 161.411C91.7406 161.411 90.4712 163.797 90.4712 168.568C90.4712 171.063 90.7776 172.968 91.3904 174.281C92.0251 175.572 93.01 176.218 94.3451 176.218ZM107.934 162.856L105.833 162.265V160L111.282 159.31H111.381L112.202 159.967V161.247L112.169 162.035C112.935 161.313 113.931 160.689 115.156 160.164C116.382 159.638 117.619 159.376 118.866 159.376C120.201 159.376 121.241 159.628 121.985 160.131C122.751 160.612 123.298 161.378 123.627 162.429C123.955 163.48 124.119 164.902 124.119 166.697V175.758L126.122 176.021V177.991H117.651V176.021L119.424 175.758V166.697C119.424 165.559 119.348 164.672 119.194 164.038C119.041 163.381 118.757 162.911 118.341 162.626C117.947 162.32 117.378 162.166 116.634 162.166C115.386 162.166 114.051 162.703 112.628 163.775V175.725L114.598 176.021V177.991H106.03V176.021L107.934 175.725V162.856Z" fill="white"/>
</svg>
