<svg width="20" height="20" viewBox="0 0 20 20" fill="none" xmlns="http://www.w3.org/2000/svg">
<path d="M7.99926 8.0409C8.05395 8.084 8.10011 8.13518 8.1406 8.18974H9.7166V6.03456C9.7166 5.88572 9.58946 5.76517 9.4325 5.76517C9.27554 5.76517 9.14841 5.88572 9.14841 6.03456C9.14841 6.18341 9.02128 6.30396 8.86432 6.30396C8.70736 6.30396 8.58023 6.18341 8.58023 6.03456C8.58023 5.58872 8.96234 5.22637 9.4325 5.22637C9.65125 5.22637 9.84941 5.30719 10.0007 5.43651C10.152 5.3072 10.3501 5.22637 10.5689 5.22637C11.039 5.22637 11.4211 5.58872 11.4211 6.03456C11.4211 6.18341 11.294 6.30396 11.1371 6.30396C10.9801 6.30396 10.853 6.18341 10.853 6.03456C10.853 5.88572 10.7258 5.76517 10.5689 5.76517C10.4119 5.76517 10.2848 5.88572 10.2848 6.03456V8.18974H11.8608C11.9013 8.13518 11.9467 8.08467 12.0021 8.0409C12.7166 7.47584 13.1264 6.6461 13.1264 5.76521C13.1264 4.13131 11.7244 2.80176 10.0013 2.80176C8.27829 2.80176 6.87622 4.13122 6.87622 5.76521C6.87622 6.64614 7.28602 7.47588 8.00051 8.0409H7.99926Z" fill="#9B14BC"/>
<path d="M9.99999 11.1531C10.7834 11.1531 11.4204 10.549 11.4204 9.8061V9.73134C11.5895 9.63773 11.7045 9.46598 11.7045 9.26731V8.72852H8.29544V9.26731C8.29544 9.46598 8.4105 9.63772 8.57953 9.73134V9.8061C8.57953 10.549 9.2166 11.1531 9.99999 11.1531Z" fill="#9B14BC"/>
<path d="M17.3864 7.11206H17.1023V15.194C17.1023 15.6398 16.7202 16.0021 16.25 16.0021H11.1364C10.9822 16.0021 10.8523 16.1254 10.8523 16.2715C10.8523 16.7174 10.4702 17.0797 9.99999 17.0797C9.52982 17.0797 9.14771 16.7174 9.14771 16.2715C9.14771 16.1254 9.01774 16.0021 8.86362 16.0021H3.74999C3.27982 16.0021 2.89771 15.6398 2.89771 15.194V7.11206H2.61362C2.30111 7.11206 2.04544 7.35451 2.04544 7.65085V16.2715C2.04544 16.5679 2.30111 16.8103 2.61362 16.8103H8.60799C8.73867 17.4246 9.31537 17.8879 10 17.8879C10.6847 17.8879 11.2614 17.4246 11.3921 16.8103H17.3864C17.6989 16.8103 17.9546 16.5679 17.9546 16.2715V7.65085C17.9546 7.35451 17.6989 7.11206 17.3864 7.11206Z" fill="#9B14BC"/>
<path d="M3.75001 15.4635H8.86365C9.33239 15.4635 9.71592 15.8272 9.71592 16.2717C9.71592 16.4205 9.84305 16.541 10 16.541C10.157 16.541 10.2841 16.4205 10.2841 16.2717C10.2841 15.8272 10.6676 15.4635 11.1364 15.4635H16.25C16.4063 15.4635 16.5341 15.3422 16.5341 15.1941V6.30406C16.5341 6.1559 16.4063 6.03467 16.25 6.03467H13.6776C13.6017 6.97419 13.1357 7.8457 12.3644 8.45519C12.3062 8.50098 12.2728 8.57305 12.2728 8.65184V9.26741C12.2728 9.53479 12.1656 9.79072 11.9795 9.98603C11.8928 10.8521 11.1847 11.5479 10.2842 11.6704V15.1942C10.2842 15.3431 10.157 15.4636 10.0001 15.4636C9.84312 15.4636 9.71599 15.3431 9.71599 15.1942V11.6704C8.81543 11.5472 8.10732 10.8521 8.02068 9.98603C7.83532 9.79072 7.72736 9.53479 7.72736 9.26741V8.65184C7.72736 8.57304 7.69398 8.50165 7.63503 8.45451C6.86443 7.84568 6.39852 6.97419 6.32252 6.03469H3.75016C3.5939 6.03469 3.46606 6.15591 3.46606 6.30408V15.1941C3.46606 15.3422 3.59376 15.4635 3.75001 15.4635Z" fill="#9B14BC"/>
</svg>
