<svg width="20" height="20" viewBox="0 0 20 20" fill="none" xmlns="http://www.w3.org/2000/svg">
<path d="M7.9995 8.0409C8.05419 8.084 8.10036 8.13518 8.14084 8.18974H9.71684V6.03456C9.71684 5.88572 9.58971 5.76517 9.43275 5.76517C9.27579 5.76517 9.14866 5.88572 9.14866 6.03456C9.14866 6.18341 9.02153 6.30396 8.86457 6.30396C8.70761 6.30396 8.58048 6.18341 8.58048 6.03456C8.58048 5.58872 8.96259 5.22637 9.43275 5.22637C9.65149 5.22637 9.84966 5.30719 10.0009 5.43651C10.1522 5.3072 10.3504 5.22637 10.5691 5.22637C11.0393 5.22637 11.4214 5.58872 11.4214 6.03456C11.4214 6.18341 11.2943 6.30396 11.1373 6.30396C10.9803 6.30396 10.8532 6.18341 10.8532 6.03456C10.8532 5.88572 10.7261 5.76517 10.5691 5.76517C10.4122 5.76517 10.285 5.88572 10.285 6.03456V8.18974H11.861C11.9015 8.13518 11.947 8.08467 12.0024 8.0409C12.7168 7.47584 13.1266 6.6461 13.1266 5.76521C13.1266 4.13131 11.7247 2.80176 10.0016 2.80176C8.27854 2.80176 6.87646 4.13122 6.87646 5.76521C6.87646 6.64614 7.28627 7.47588 8.00076 8.0409H7.9995Z" fill="white"/>
<path d="M9.99996 11.1531C10.7833 11.1531 11.4204 10.549 11.4204 9.8061V9.73134C11.5894 9.63773 11.7045 9.46598 11.7045 9.26731V8.72852H8.29541V9.26731C8.29541 9.46598 8.41047 9.63772 8.5795 9.73134V9.8061C8.5795 10.549 9.21657 11.1531 9.99996 11.1531Z" fill="white"/>
<path d="M17.3863 7.11206H17.1022V15.194C17.1022 15.6398 16.7201 16.0021 16.25 16.0021H11.1363C10.9822 16.0021 10.8522 16.1254 10.8522 16.2715C10.8522 16.7174 10.4701 17.0797 9.99996 17.0797C9.52979 17.0797 9.14768 16.7174 9.14768 16.2715C9.14768 16.1254 9.01771 16.0021 8.86359 16.0021H3.74996C3.27979 16.0021 2.89768 15.6398 2.89768 15.194V7.11206H2.61359C2.30108 7.11206 2.04541 7.35451 2.04541 7.65085V16.2715C2.04541 16.5679 2.30108 16.8103 2.61359 16.8103H8.60796C8.73864 17.4246 9.31534 17.8879 9.99999 17.8879C10.6846 17.8879 11.2614 17.4246 11.392 16.8103H17.3864C17.6989 16.8103 17.9546 16.5679 17.9546 16.2715V7.65085C17.9546 7.35451 17.6988 7.11206 17.3863 7.11206Z" fill="#9B14BC"/>
<path d="M3.74977 15.4635H8.86341C9.33215 15.4635 9.71568 15.8272 9.71568 16.2717C9.71568 16.4205 9.84281 16.541 9.99977 16.541C10.1567 16.541 10.2839 16.4205 10.2839 16.2717C10.2839 15.8272 10.6674 15.4635 11.1361 15.4635H16.2498C16.406 15.4635 16.5339 15.3422 16.5339 15.1941V6.30406C16.5339 6.1559 16.406 6.03467 16.2498 6.03467H13.6774C13.6014 6.97419 13.1355 7.8457 12.3642 8.45519C12.3059 8.50098 12.2726 8.57305 12.2726 8.65184V9.26741C12.2726 9.53479 12.1653 9.79072 11.9792 9.98603C11.8926 10.8521 11.1845 11.5479 10.2839 11.6704V15.1942C10.2839 15.3431 10.1568 15.4636 9.99984 15.4636C9.84288 15.4636 9.71575 15.3431 9.71575 15.1942V11.6704C8.81519 11.5472 8.10708 10.8521 8.02044 9.98603C7.83508 9.79072 7.72711 9.53479 7.72711 9.26741V8.65184C7.72711 8.57304 7.69373 8.50165 7.63478 8.45451C6.86418 7.84568 6.39827 6.97419 6.32227 6.03469H3.74991C3.59366 6.03469 3.46582 6.15591 3.46582 6.30408V15.1941C3.46582 15.3423 3.59352 15.4635 3.74977 15.4635Z" fill="white"/>
</svg>
