<svg width="20" height="20" viewBox="0 0 20 20" fill="none" xmlns="http://www.w3.org/2000/svg">
<path d="M9.55835 7.1085C9.67554 7.22554 9.83439 7.29128 10 7.29128C10.1656 7.29128 10.3245 7.22554 10.4417 7.1085L11.275 6.27516C11.3623 6.18776 11.4218 6.07644 11.4458 5.95528C11.4699 5.83411 11.4575 5.70853 11.4103 5.59439C11.363 5.48026 11.283 5.38269 11.1803 5.314C11.0776 5.24532 10.9569 5.2086 10.8334 5.2085H9.16669C9.04315 5.2086 8.92242 5.24532 8.81974 5.314C8.71706 5.38269 8.63704 5.48026 8.58978 5.59439C8.54252 5.70853 8.53015 5.83411 8.55422 5.95528C8.57829 6.07644 8.63772 6.18776 8.72502 6.27516L9.55835 7.1085ZM9.55835 12.8918C9.67554 12.7748 9.83439 12.709 10 12.709C10.1656 12.709 10.3245 12.7748 10.4417 12.8918L11.275 13.7252C11.3623 13.8126 11.4218 13.9239 11.4458 14.045C11.4699 14.1662 11.4575 14.2918 11.4103 14.4059C11.363 14.5201 11.283 14.6176 11.1803 14.6863C11.0776 14.755 10.9569 14.7917 10.8334 14.7918H9.16669C9.04315 14.7917 8.92242 14.755 8.81974 14.6863C8.71706 14.6176 8.63704 14.5201 8.58978 14.4059C8.54252 14.2918 8.53015 14.1662 8.55422 14.045C8.57829 13.9239 8.63772 13.8126 8.72502 13.7252L9.55835 12.8918Z" fill="#8431BC"/>
<path fill-rule="evenodd" clip-rule="evenodd" d="M10.9575 9.99989L11.1133 9.86573C12.7592 8.4471 14.1279 6.73569 15.15 4.81823C15.2424 4.64472 15.2905 4.451 15.2898 4.2544C15.2891 4.05779 15.2397 3.86442 15.146 3.69157C15.0523 3.51873 14.9172 3.37178 14.7529 3.26388C14.5885 3.15598 14.4 3.09047 14.2042 3.07323L13.2258 2.98823C11.0793 2.8008 8.92062 2.8008 6.77415 2.98823L5.79582 3.07323C5.59997 3.09047 5.41145 3.15598 5.2471 3.26388C5.08275 3.37178 4.94769 3.51873 4.854 3.69157C4.76032 3.86442 4.71091 4.05779 4.71021 4.2544C4.70951 4.451 4.75753 4.64472 4.84999 4.81823C5.87211 6.73569 7.24078 8.4471 8.88665 9.86573L9.04248 9.99989L8.88665 10.1341C7.24062 11.5532 5.87194 13.2652 4.84999 15.1832C4.75772 15.3567 4.70984 15.5503 4.71064 15.7468C4.71143 15.9433 4.76087 16.1366 4.85454 16.3093C4.94821 16.482 5.08319 16.6289 5.24744 16.7367C5.41169 16.8446 5.60009 16.9101 5.79582 16.9274L6.77415 17.0124C8.92082 17.2007 11.0792 17.2007 13.2258 17.0124L14.2042 16.9274C14.3999 16.9101 14.5883 16.8446 14.7525 16.7367C14.9168 16.6289 15.0518 16.482 15.1454 16.3093C15.2391 16.1366 15.2885 15.9433 15.2893 15.7468C15.2901 15.5503 15.2423 15.3567 15.15 15.1832C14.1279 13.2655 12.7593 11.5538 11.1133 10.1349L10.9575 9.99989ZM10.0033 9.17156L10.005 9.16989L10.2975 8.91823C11.8028 7.62064 13.0586 6.05923 14.0033 4.31073L13.1167 4.23323C11.0428 4.05217 8.95715 4.05217 6.88332 4.23323L5.99582 4.31073C6.94066 6.05959 8.1968 7.6213 9.70248 8.91906L9.99415 9.17073L9.99665 9.17156H10.0033ZM10.005 10.8299L10.0033 10.8282H9.99665L9.99415 10.8299L9.70248 11.0816C8.1968 12.3793 6.94066 13.941 5.99582 15.6899L6.88248 15.7666C8.95748 15.9482 11.0433 15.9482 13.1167 15.7666L14.0033 15.6891C13.0587 13.9403 11.8029 12.3786 10.2975 11.0807L10.005 10.8299Z" fill="#8431BC"/>
</svg>
