<svg width="12" height="14" viewBox="0 0 12 14" fill="none" xmlns="http://www.w3.org/2000/svg">
<path fill-rule="evenodd" clip-rule="evenodd" d="M4.78549 10.9338C5.24636 9.94423 5.34799 9.02498 5.16582 8.05298C7.43824 5.95665 11.3847 6.91887 11.6589 9.92932C11.8839 12.3955 8.93845 14.7647 6.39947 13.124C3.9302 13.3818 2.24393 13.2509 1.33951 12.7301C1.11004 12.4684 0.987313 12.0869 0.97005 11.5849C-0.830605 8.45992 0.731632 6.20792 1.30691 2.40008C1.57986 0.595417 6.05744 -0.0484157 6.41613 0.553084C6.73381 1.41637 7.04255 2.70275 6.28701 3.27642C6.32472 2.59998 6.2461 1.75363 6.01279 1.29142C5.95846 1.22371 5.86577 1.20418 5.78907 1.24389C5.713 1.28295 5.67465 1.37215 5.69702 1.45547C5.95846 1.97371 6.00192 3.17614 5.86705 3.78681C5.70087 3.96714 5.48609 4.05829 5.22401 4.05894C5.23808 4.00686 5.24639 3.95282 5.25086 3.89748C5.30264 3.20152 5.33332 2.11615 4.90122 1.52632C4.86478 1.47098 4.80086 1.44038 4.73567 1.44689C4.66983 1.45405 4.61358 1.49637 4.58865 1.55887C4.56372 1.62137 4.57459 1.69168 4.61677 1.74312C4.88268 2.1051 4.97601 2.81408 4.89738 3.87012C4.87628 4.1403 4.66215 4.34863 4.39688 4.35775C3.8363 4.37598 3.37032 4.11622 2.98998 3.64812C3.0245 3.15332 3.16129 2.98797 3.90789 3.08497C3.21883 2.84343 2.88388 2.58172 2.90242 2.30177C2.90242 2.20672 2.82955 2.12598 2.73623 2.12013C2.64291 2.11362 2.55982 2.18329 2.54831 2.27834C2.53041 2.55372 2.66657 2.77379 2.86663 2.94695C2.73815 3.09083 2.6589 3.30829 2.63653 3.62274L2.6263 3.76792L2.71771 3.87925C3.0143 4.24448 3.37481 4.51466 3.79476 4.64096C3.73659 6.27183 5.75513 8.00813 4.4653 10.7796C4.42758 10.8695 4.46593 10.9723 4.55287 11.014C4.63852 11.055 4.74138 11.0198 4.78549 10.9338ZM10.8893 6.16682C10.819 6.24624 10.826 6.36863 10.904 6.44025C10.9826 6.51187 11.1028 6.5047 11.1731 6.42528L11.8225 5.68504C11.8928 5.60562 11.8858 5.48323 11.8078 5.41161C11.7299 5.34065 11.609 5.34716 11.5394 5.42658L10.8893 6.16682ZM8.25066 5.35757C8.25066 5.46499 8.33631 5.55223 8.44178 5.55223C8.54789 5.55223 8.63291 5.46499 8.63291 5.35757V4.36538C8.63291 4.25731 8.5479 4.17072 8.44178 4.17072C8.33696 4.17072 8.25066 4.25731 8.25066 4.36538V5.35757ZM5.71102 6.42527C5.78133 6.50469 5.90151 6.51186 5.98012 6.44024C6.0581 6.36863 6.0645 6.24622 5.99482 6.16681L5.34474 5.42658C5.27507 5.34715 5.15426 5.34064 5.07628 5.4116C4.9983 5.48322 4.99127 5.60562 5.06158 5.68503L5.71102 6.42527Z" fill="#9B14BC"/>
</svg>
